<svg xmlns="http://www.w3.org/2000/svg" xmlns:xlink="http://www.w3.org/1999/xlink" contentStyleType="text/css" data-diagram-type="SEQUENCE" height="415px" preserveAspectRatio="none" style="width:551px;height:415px;background:#FFFFFF;" version="1.1" viewBox="0 0 551 415" width="551px" zoomAndPan="magnify"><defs/><g><g><title>Editor</title><rect fill="#FFFFFF" height="234.0625" style="stroke:#181818;stroke-width:1;" width="10" x="23.7163" y="91.2969"/></g><g><title>:System</title><rect fill="#FFFFFF" height="29.1328" style="stroke:#181818;stroke-width:1;" width="10" x="505.1763" y="112.4297"/></g><g><title>:System</title><rect fill="#FFFFFF" height="29.1328" style="stroke:#181818;stroke-width:1;" width="10" x="505.1763" y="170.6953"/></g><g><title>:System</title><rect fill="#FFFFFF" height="29.1328" style="stroke:#181818;stroke-width:1;" width="10" x="505.1763" y="228.9609"/></g><g><title>:System</title><rect fill="#FFFFFF" height="29.1328" style="stroke:#181818;stroke-width:1;" width="10" x="505.1763" y="287.2266"/></g><g><title>Editor</title><rect fill="transparent" height="253.0625" width="8" x="24.7163" y="81.2969"/><line style="stroke:#181818;stroke-width:0.5;stroke-dasharray:5.0,5.0;" x1="28" x2="28" y1="81.2969" y2="334.3594"/></g><g><title>:System</title><rect fill="transparent" height="253.0625" width="8" x="506.1763" y="81.2969"/><line style="stroke:#181818;stroke-width:0.5;stroke-dasharray:5.0,5.0;" x1="509.7148" x2="509.7148" y1="81.2969" y2="334.3594"/></g><text fill="#000000" font-family="sans-serif" font-size="14" lengthAdjust="spacing" textLength="41.4326" x="5" y="77.9951">Editor</text><ellipse cx="28.7163" cy="13.5" fill="#E3E3E3" rx="8" ry="8" style="stroke:#181818;stroke-width:0.5;"/><path d="M28.7163,21.5 L28.7163,48.5 M15.7163,29.5 L41.7163,29.5 M28.7163,48.5 L15.7163,63.5 M28.7163,48.5 L41.7163,63.5 " fill="transparent" style="stroke:#181818;stroke-width:0.5;"/><text fill="#000000" font-family="sans-serif" font-size="14" lengthAdjust="spacing" textLength="41.4326" x="5" y="346.3545">Editor</text><ellipse cx="28.7163" cy="358.1563" fill="#E3E3E3" rx="8" ry="8" style="stroke:#181818;stroke-width:0.5;"/><path d="M28.7163,366.1563 L28.7163,393.1563 M15.7163,374.1563 L41.7163,374.1563 M28.7163,393.1563 L15.7163,408.1563 M28.7163,393.1563 L41.7163,408.1563 " fill="transparent" style="stroke:#181818;stroke-width:0.5;"/><rect fill="#E3E3E3" height="30.2969" rx="2.5" ry="2.5" style="stroke:#181818;stroke-width:0.5;" width="70.9229" x="474.7148" y="50"/><text fill="#000000" font-family="sans-serif" font-size="14" lengthAdjust="spacing" textLength="56.9229" x="481.7148" y="69.9951">:System</text><rect fill="#E3E3E3" height="30.2969" rx="2.5" ry="2.5" style="stroke:#181818;stroke-width:0.5;" width="70.9229" x="474.7148" y="333.3594"/><text fill="#000000" font-family="sans-serif" font-size="14" lengthAdjust="spacing" textLength="56.9229" x="481.7148" y="353.3545">:System</text><g><title>Editor</title><rect fill="#FFFFFF" height="234.0625" style="stroke:#181818;stroke-width:1;" width="10" x="23.7163" y="91.2969"/></g><g><title>:System</title><rect fill="#FFFFFF" height="29.1328" style="stroke:#181818;stroke-width:1;" width="10" x="505.1763" y="112.4297"/></g><g><title>:System</title><rect fill="#FFFFFF" height="29.1328" style="stroke:#181818;stroke-width:1;" width="10" x="505.1763" y="170.6953"/></g><g><title>:System</title><rect fill="#FFFFFF" height="29.1328" style="stroke:#181818;stroke-width:1;" width="10" x="505.1763" y="228.9609"/></g><g><title>:System</title><rect fill="#FFFFFF" height="29.1328" style="stroke:#181818;stroke-width:1;" width="10" x="505.1763" y="287.2266"/></g><polygon fill="#181818" points="493.1763,108.4297,503.1763,112.4297,493.1763,116.4297,497.1763,112.4297" style="stroke:#181818;stroke-width:1;"/><line style="stroke:#181818;stroke-width:1;" x1="33.7163" x2="499.1763" y1="112.4297" y2="112.4297"/><text fill="#000000" font-family="sans-serif" font-size="13" font-weight="bold" lengthAdjust="spacing" textLength="9.0454" x="40.7163" y="107.3638">1</text><text fill="#000000" font-family="sans-serif" font-size="13" lengthAdjust="spacing" textLength="225.2974" x="53.7617" y="107.3638">Requests to create a new scenario</text><polygon fill="#181818" points="44.7163,137.5625,34.7163,141.5625,44.7163,145.5625,40.7163,141.5625" style="stroke:#181818;stroke-width:1;"/><line style="stroke:#181818;stroke-width:1;stroke-dasharray:2.0,2.0;" x1="38.7163" x2="509.1763" y1="141.5625" y2="141.5625"/><text fill="#000000" font-family="sans-serif" font-size="13" font-weight="bold" lengthAdjust="spacing" textLength="9.0454" x="50.7163" y="136.4966">2</text><text fill="#000000" font-family="sans-serif" font-size="13" lengthAdjust="spacing" textLength="241.8584" x="63.7617" y="136.4966">Displays available maps for selection</text><polygon fill="#181818" points="493.1763,166.6953,503.1763,170.6953,493.1763,174.6953,497.1763,170.6953" style="stroke:#181818;stroke-width:1;"/><line style="stroke:#181818;stroke-width:1;" x1="33.7163" x2="499.1763" y1="170.6953" y2="170.6953"/><text fill="#000000" font-family="sans-serif" font-size="13" font-weight="bold" lengthAdjust="spacing" textLength="9.0454" x="40.7163" y="165.6294">3</text><text fill="#000000" font-family="sans-serif" font-size="13" lengthAdjust="spacing" textLength="91.9902" x="53.7617" y="165.6294">Selects a map</text><polygon fill="#181818" points="44.7163,195.8281,34.7163,199.8281,44.7163,203.8281,40.7163,199.8281" style="stroke:#181818;stroke-width:1;"/><line style="stroke:#181818;stroke-width:1;stroke-dasharray:2.0,2.0;" x1="38.7163" x2="509.1763" y1="199.8281" y2="199.8281"/><text fill="#000000" font-family="sans-serif" font-size="13" font-weight="bold" lengthAdjust="spacing" textLength="9.0454" x="50.7163" y="194.7622">4</text><text fill="#000000" font-family="sans-serif" font-size="13" lengthAdjust="spacing" textLength="434.4146" x="63.7617" y="194.7622">Requests scenario details (name, time period, restrictions, events)</text><polygon fill="#181818" points="493.1763,224.9609,503.1763,228.9609,493.1763,232.9609,497.1763,228.9609" style="stroke:#181818;stroke-width:1;"/><line style="stroke:#181818;stroke-width:1;" x1="33.7163" x2="499.1763" y1="228.9609" y2="228.9609"/><text fill="#000000" font-family="sans-serif" font-size="13" font-weight="bold" lengthAdjust="spacing" textLength="9.0454" x="40.7163" y="223.895">5</text><text fill="#000000" font-family="sans-serif" font-size="13" lengthAdjust="spacing" textLength="162.0747" x="53.7617" y="223.895">Provides scenario details</text><polygon fill="#181818" points="44.7163,254.0938,34.7163,258.0938,44.7163,262.0938,40.7163,258.0938" style="stroke:#181818;stroke-width:1;"/><line style="stroke:#181818;stroke-width:1;stroke-dasharray:2.0,2.0;" x1="38.7163" x2="509.1763" y1="258.0938" y2="258.0938"/><text fill="#000000" font-family="sans-serif" font-size="13" font-weight="bold" lengthAdjust="spacing" textLength="9.0454" x="50.7163" y="253.0278">6</text><text fill="#000000" font-family="sans-serif" font-size="13" lengthAdjust="spacing" textLength="295.9023" x="63.7617" y="253.0278">Displays summary and requests confirmation</text><polygon fill="#181818" points="493.1763,283.2266,503.1763,287.2266,493.1763,291.2266,497.1763,287.2266" style="stroke:#181818;stroke-width:1;"/><line style="stroke:#181818;stroke-width:1;" x1="33.7163" x2="499.1763" y1="287.2266" y2="287.2266"/><text fill="#000000" font-family="sans-serif" font-size="13" font-weight="bold" lengthAdjust="spacing" textLength="9.0454" x="40.7163" y="282.1606">7</text><text fill="#000000" font-family="sans-serif" font-size="13" lengthAdjust="spacing" textLength="174.897" x="53.7617" y="282.1606">Confirms scenario creation</text><polygon fill="#181818" points="44.7163,312.3594,34.7163,316.3594,44.7163,320.3594,40.7163,316.3594" style="stroke:#181818;stroke-width:1;"/><line style="stroke:#181818;stroke-width:1;stroke-dasharray:2.0,2.0;" x1="38.7163" x2="509.1763" y1="316.3594" y2="316.3594"/><text fill="#000000" font-family="sans-serif" font-size="13" font-weight="bold" lengthAdjust="spacing" textLength="9.0454" x="50.7163" y="311.2935">8</text><text fill="#000000" font-family="sans-serif" font-size="13" lengthAdjust="spacing" textLength="305.3159" x="63.7617" y="311.2935">Displays operation success and saves scenario</text><!--SRC=[bP71RW9128Rl-nJ4Kvle2tZefUszgK-0CwZ47MOxi6lsxOkpgpMn1pr10l_F1-YHfSE22LAM70ub9m8hFJLwhNGOZhYdZOqjGQ5WAFlsja4F6FE9PGyxR9MQ1dlBqgSj5S-3vGABpyWU5u0AKzgurZXmXsAmM6z6DKgrFgLLoGCQNGJD567rDhV06hxffoSr1SiG2fsx4OHEe8442-S_buljh5svpMouXW_MhiLH0GVa5hU-QC9EOUTLfTPtvYnDf3kpVv0sjT-jpXQFZRzkSQ66IEOW2Y-2YPPWx6_fo2jnwIzGAroHT0aqa9Y-FWZtLVB0aUudFNadxLF2CW9AT9wPFcJPSKdunB7U9yaDJ_tYsU0veEpNgJf72u5KAvhYSBFhFTCl]--></g></svg>