<svg xmlns="http://www.w3.org/2000/svg" xmlns:xlink="http://www.w3.org/1999/xlink" contentStyleType="text/css" height="499px" preserveAspectRatio="none" style="width:461px;height:499px;background:#FFFFFF;" version="1.1" viewBox="0 0 461 499" width="461px" zoomAndPan="magnify"><defs/><g><rect fill="#FFFFFF" height="314.25" style="stroke:#181818;stroke-width:1.0;" width="10" x="36.2861" y="93.6211"/><rect fill="#FFFFFF" height="31.291" style="stroke:#181818;stroke-width:1.0;" width="10" x="340.894" y="116.9121"/><rect fill="#FFFFFF" height="228.377" style="stroke:#181818;stroke-width:1.0;" width="10" x="340.894" y="179.4941"/><rect fill="none" height="161.0859" style="stroke:#000000;stroke-width:1.5;" width="378.1768" x="10" y="238.7852"/><line style="stroke:#181818;stroke-width:0.5;stroke-dasharray:5.0,5.0;" x1="41" x2="41" y1="83.6211" y2="416.8711"/><line style="stroke:#181818;stroke-width:0.5;stroke-dasharray:5.0,5.0;" x1="345.6113" x2="345.6113" y1="83.6211" y2="416.8711"/><text fill="#000000" font-family="sans-serif" font-size="14" lengthAdjust="spacing" textLength="36.5723" x="20" y="80.1074">Editor</text><ellipse cx="41.2861" cy="13.5" fill="#E3E3E3" rx="8" ry="8" style="stroke:#181818;stroke-width:0.5;"/><path d="M41.2861,21.5 L41.2861,48.5 M28.2861,29.5 L54.2861,29.5 M41.2861,48.5 L28.2861,63.5 M41.2861,48.5 L54.2861,63.5 " fill="none" style="stroke:#181818;stroke-width:0.5;"/><text fill="#000000" font-family="sans-serif" font-size="14" lengthAdjust="spacing" textLength="36.5723" x="20" y="430.9785">Editor</text><ellipse cx="41.2861" cy="442.9922" fill="#E3E3E3" rx="8" ry="8" style="stroke:#181818;stroke-width:0.5;"/><path d="M41.2861,450.9922 L41.2861,477.9922 M28.2861,458.9922 L54.2861,458.9922 M41.2861,477.9922 L28.2861,492.9922 M41.2861,477.9922 L54.2861,492.9922 " fill="none" style="stroke:#181818;stroke-width:0.5;"/><rect fill="#E3E3E3" height="32.6211" rx="2.5" ry="2.5" style="stroke:#181818;stroke-width:0.5;" width="64.5654" x="313.6113" y="50"/><text fill="#000000" font-family="sans-serif" font-size="14" lengthAdjust="spacing" textLength="50.5654" x="320.6113" y="72.1074">:System</text><rect fill="#E3E3E3" height="32.6211" rx="2.5" ry="2.5" style="stroke:#181818;stroke-width:0.5;" width="64.5654" x="313.6113" y="415.8711"/><text fill="#000000" font-family="sans-serif" font-size="14" lengthAdjust="spacing" textLength="50.5654" x="320.6113" y="437.9785">:System</text><rect fill="#FFFFFF" height="314.25" style="stroke:#181818;stroke-width:1.0;" width="10" x="36.2861" y="93.6211"/><rect fill="#FFFFFF" height="31.291" style="stroke:#181818;stroke-width:1.0;" width="10" x="340.894" y="116.9121"/><rect fill="#FFFFFF" height="228.377" style="stroke:#181818;stroke-width:1.0;" width="10" x="340.894" y="179.4941"/><polygon fill="#181818" points="328.894,112.9121,338.894,116.9121,328.894,120.9121,332.894,116.9121" style="stroke:#181818;stroke-width:1.0;"/><line style="stroke:#181818;stroke-width:1.0;" x1="46.2861" x2="334.894" y1="116.9121" y2="116.9121"/><text fill="#000000" font-family="sans-serif" font-size="13" font-weight="bold" lengthAdjust="spacing" textLength="7.23" x="53.2861" y="111.6494">1</text><text fill="#000000" font-family="sans-serif" font-size="13" lengthAdjust="spacing" textLength="176.3188" x="64.5161" y="111.6494">Requests to create a new map</text><polygon fill="#181818" points="57.2861,144.2031,47.2861,148.2031,57.2861,152.2031,53.2861,148.2031" style="stroke:#181818;stroke-width:1.0;"/><line style="stroke:#181818;stroke-width:1.0;stroke-dasharray:2.0,2.0;" x1="51.2861" x2="344.894" y1="148.2031" y2="148.2031"/><text fill="#000000" font-family="sans-serif" font-size="13" font-weight="bold" lengthAdjust="spacing" textLength="7.23" x="63.2861" y="142.9404">2</text><text fill="#000000" font-family="sans-serif" font-size="13" lengthAdjust="spacing" textLength="250.0151" x="74.5161" y="142.9404">Requests map details (name, width, height)</text><polygon fill="#181818" points="328.894,175.4941,338.894,179.4941,328.894,183.4941,332.894,179.4941" style="stroke:#181818;stroke-width:1.0;"/><line style="stroke:#181818;stroke-width:1.0;" x1="46.2861" x2="334.894" y1="179.4941" y2="179.4941"/><text fill="#000000" font-family="sans-serif" font-size="13" font-weight="bold" lengthAdjust="spacing" textLength="7.23" x="53.2861" y="174.2314">3</text><text fill="#000000" font-family="sans-serif" font-size="13" lengthAdjust="spacing" textLength="120.6689" x="64.5161" y="174.2314">Provides map details</text><line style="stroke:#181818;stroke-width:1.0;stroke-dasharray:2.0,2.0;" x1="350.894" x2="392.894" y1="210.7852" y2="210.7852"/><line style="stroke:#181818;stroke-width:1.0;stroke-dasharray:2.0,2.0;" x1="392.894" x2="392.894" y1="210.7852" y2="223.7852"/><line style="stroke:#181818;stroke-width:1.0;stroke-dasharray:2.0,2.0;" x1="351.894" x2="392.894" y1="223.7852" y2="223.7852"/><polygon fill="#181818" points="361.894,219.7852,351.894,223.7852,361.894,227.7852,357.894,223.7852" style="stroke:#181818;stroke-width:1.0;"/><text fill="#000000" font-family="sans-serif" font-size="13" font-weight="bold" lengthAdjust="spacing" textLength="7.23" x="357.894" y="205.5225">4</text><text fill="#000000" font-family="sans-serif" font-size="13" lengthAdjust="spacing" textLength="85.2808" x="369.124" y="205.5225">Validate inputs</text><path d="M10,238.7852 L70.1709,238.7852 L70.1709,248.0762 L60.1709,258.0762 L10,258.0762 L10,238.7852 " fill="#EEEEEE" style="stroke:#000000;stroke-width:1.5;"/><rect fill="none" height="161.0859" style="stroke:#000000;stroke-width:1.5;" width="378.1768" x="10" y="238.7852"/><text fill="#000000" font-family="sans-serif" font-size="13" font-weight="bold" lengthAdjust="spacing" textLength="15.1709" x="25" y="253.8135">alt</text><text fill="#000000" font-family="sans-serif" font-size="11" font-weight="bold" lengthAdjust="spacing" textLength="69.6631" x="85.1709" y="252.6553">[Valid Inputs]</text><polygon fill="#181818" points="57.2861,277.3672,47.2861,281.3672,57.2861,285.3672,53.2861,281.3672" style="stroke:#181818;stroke-width:1.0;"/><line style="stroke:#181818;stroke-width:1.0;stroke-dasharray:2.0,2.0;" x1="51.2861" x2="339.894" y1="281.3672" y2="281.3672"/><text fill="#000000" font-family="sans-serif" font-size="13" font-weight="bold" lengthAdjust="spacing" textLength="7.23" x="63.2861" y="276.1045">5</text><text fill="#000000" font-family="sans-serif" font-size="13" lengthAdjust="spacing" textLength="259.3779" x="74.5161" y="276.1045">Displays summary and requests confirmation</text><polygon fill="#181818" points="328.894,308.6582,338.894,312.6582,328.894,316.6582,332.894,312.6582" style="stroke:#181818;stroke-width:1.0;"/><line style="stroke:#181818;stroke-width:1.0;" x1="46.2861" x2="334.894" y1="312.6582" y2="312.6582"/><text fill="#000000" font-family="sans-serif" font-size="13" font-weight="bold" lengthAdjust="spacing" textLength="7.23" x="53.2861" y="307.3955">6</text><text fill="#000000" font-family="sans-serif" font-size="13" lengthAdjust="spacing" textLength="130.7681" x="64.5161" y="307.3955">Confirms map creation</text><polygon fill="#181818" points="57.2861,339.9492,47.2861,343.9492,57.2861,347.9492,53.2861,343.9492" style="stroke:#181818;stroke-width:1.0;"/><line style="stroke:#181818;stroke-width:1.0;stroke-dasharray:2.0,2.0;" x1="51.2861" x2="339.894" y1="343.9492" y2="343.9492"/><text fill="#000000" font-family="sans-serif" font-size="13" font-weight="bold" lengthAdjust="spacing" textLength="7.23" x="63.2861" y="338.6865">7</text><text fill="#000000" font-family="sans-serif" font-size="13" lengthAdjust="spacing" textLength="249.2915" x="74.5161" y="338.6865">Displays operation success and saves map</text><line style="stroke:#000000;stroke-width:1.0;stroke-dasharray:2.0,2.0;" x1="10" x2="388.1768" y1="352.9492" y2="352.9492"/><text fill="#000000" font-family="sans-serif" font-size="11" font-weight="bold" lengthAdjust="spacing" textLength="78.2192" x="15" y="364.8193">[Invalid Inputs]</text><polygon fill="#181818" points="57.2861,387.8711,47.2861,391.8711,57.2861,395.8711,53.2861,391.8711" style="stroke:#181818;stroke-width:1.0;"/><line style="stroke:#181818;stroke-width:1.0;stroke-dasharray:2.0,2.0;" x1="51.2861" x2="339.894" y1="391.8711" y2="391.8711"/><text fill="#000000" font-family="sans-serif" font-size="13" font-weight="bold" lengthAdjust="spacing" textLength="7.23" x="63.2861" y="386.6084">8</text><text fill="#000000" font-family="sans-serif" font-size="13" lengthAdjust="spacing" textLength="247.1333" x="74.5161" y="386.6084">Return an Error and the map is not created</text><!--SRC=[ZLAnRW8n3Dtp5HPJAy4FC7Hf6RfL87Lt4tDdSKcEs3bqVzzmEIXL4MgMMFPxpyzEvC2XnuGUV0pHjYbw0asPZ5mhFTe3DhJJiID8P1L3qzq2f4KNJnmQs6CdP0ncZI7xBqebjXeJB3QEoxq05AYXALnbopq6XSLwDugId-erd9WyeDA5OEeDgvSP0clOqZ6Jg816i8dEQ8H09_3O_mXS56VQgYZCMZSAXG6E5BaJU0heQGadTjekeILkMdqsZlueth7qaUB0Zdu9FhHoPNvYn-uCAelDAcK3dTOalDSCb7DlY3UMliDHGBBtc4R0uCfJpPFP6FQSF2h7C4dSSVrQCTNrjCaB-66_s5EQeAMpjIGoTHOSwlp6KFaGnVtmdocsf3c5eW2Rb4hcBAKjJPPO84ITtzWP2kuR]--></g></svg>