<svg xmlns="http://www.w3.org/2000/svg" xmlns:xlink="http://www.w3.org/1999/xlink" contentStyleType="text/css" height="374px" preserveAspectRatio="none" style="width:735px;height:374px;background:#FFFFFF;" version="1.1" viewBox="0 0 735 374" width="735px" zoomAndPan="magnify"><defs/><g><rect fill="#FFFFFF" height="188.7461" style="stroke:#181818;stroke-width:1.0;" width="10" x="22.8413" y="93.6211"/><rect fill="#FFFFFF" height="31.291" style="stroke:#181818;stroke-width:1.0;" width="10" x="691.7412" y="116.9121"/><rect fill="#FFFFFF" height="31.291" style="stroke:#181818;stroke-width:1.0;" width="10" x="691.7412" y="179.4941"/><rect fill="#FFFFFF" height="31.291" style="stroke:#181818;stroke-width:1.0;" width="10" x="691.7412" y="242.0762"/><line style="stroke:#181818;stroke-width:0.5;stroke-dasharray:5.0,5.0;" x1="27" x2="27" y1="83.6211" y2="291.3672"/><line style="stroke:#181818;stroke-width:0.5;stroke-dasharray:5.0,5.0;" x1="696.4585" x2="696.4585" y1="83.6211" y2="291.3672"/><text fill="#000000" font-family="sans-serif" font-size="14" lengthAdjust="spacing" textLength="39.6826" x="5" y="80.1074">Player</text><ellipse cx="27.8413" cy="13.5" fill="#E3E3E3" rx="8" ry="8" style="stroke:#181818;stroke-width:0.5;"/><path d="M27.8413,21.5 L27.8413,48.5 M14.8413,29.5 L40.8413,29.5 M27.8413,48.5 L14.8413,63.5 M27.8413,48.5 L40.8413,63.5 " fill="none" style="stroke:#181818;stroke-width:0.5;"/><text fill="#000000" font-family="sans-serif" font-size="14" lengthAdjust="spacing" textLength="39.6826" x="5" y="305.4746">Player</text><ellipse cx="27.8413" cy="317.4883" fill="#E3E3E3" rx="8" ry="8" style="stroke:#181818;stroke-width:0.5;"/><path d="M27.8413,325.4883 L27.8413,352.4883 M14.8413,333.4883 L40.8413,333.4883 M27.8413,352.4883 L14.8413,367.4883 M27.8413,352.4883 L40.8413,367.4883 " fill="none" style="stroke:#181818;stroke-width:0.5;"/><rect fill="#E3E3E3" height="32.6211" rx="2.5" ry="2.5" style="stroke:#181818;stroke-width:0.5;" width="64.5654" x="664.4585" y="50"/><text fill="#000000" font-family="sans-serif" font-size="14" lengthAdjust="spacing" textLength="50.5654" x="671.4585" y="72.1074">:System</text><rect fill="#E3E3E3" height="32.6211" rx="2.5" ry="2.5" style="stroke:#181818;stroke-width:0.5;" width="64.5654" x="664.4585" y="290.3672"/><text fill="#000000" font-family="sans-serif" font-size="14" lengthAdjust="spacing" textLength="50.5654" x="671.4585" y="312.4746">:System</text><rect fill="#FFFFFF" height="188.7461" style="stroke:#181818;stroke-width:1.0;" width="10" x="22.8413" y="93.6211"/><rect fill="#FFFFFF" height="31.291" style="stroke:#181818;stroke-width:1.0;" width="10" x="691.7412" y="116.9121"/><rect fill="#FFFFFF" height="31.291" style="stroke:#181818;stroke-width:1.0;" width="10" x="691.7412" y="179.4941"/><rect fill="#FFFFFF" height="31.291" style="stroke:#181818;stroke-width:1.0;" width="10" x="691.7412" y="242.0762"/><polygon fill="#181818" points="679.7412,112.9121,689.7412,116.9121,679.7412,120.9121,683.7412,116.9121" style="stroke:#181818;stroke-width:1.0;"/><line style="stroke:#181818;stroke-width:1.0;" x1="32.8413" x2="685.7412" y1="116.9121" y2="116.9121"/><text fill="#000000" font-family="sans-serif" font-size="13" font-weight="bold" lengthAdjust="spacing" textLength="7.23" x="39.8413" y="111.6494">1</text><text fill="#000000" font-family="sans-serif" font-size="13" lengthAdjust="spacing" textLength="153.9053" x="51.0713" y="111.6494">Requests to list all stations</text><polygon fill="#181818" points="43.8413,144.2031,33.8413,148.2031,43.8413,152.2031,39.8413,148.2031" style="stroke:#181818;stroke-width:1.0;"/><line style="stroke:#181818;stroke-width:1.0;stroke-dasharray:2.0,2.0;" x1="37.8413" x2="695.7412" y1="148.2031" y2="148.2031"/><text fill="#000000" font-family="sans-serif" font-size="13" font-weight="bold" lengthAdjust="spacing" textLength="7.23" x="49.8413" y="142.9404">2</text><text fill="#000000" font-family="sans-serif" font-size="13" lengthAdjust="spacing" textLength="226.167" x="61.0713" y="142.9404">Displays available stations for selection</text><polygon fill="#181818" points="679.7412,175.4941,689.7412,179.4941,679.7412,183.4941,683.7412,179.4941" style="stroke:#181818;stroke-width:1.0;"/><line style="stroke:#181818;stroke-width:1.0;" x1="32.8413" x2="685.7412" y1="179.4941" y2="179.4941"/><text fill="#000000" font-family="sans-serif" font-size="13" font-weight="bold" lengthAdjust="spacing" textLength="7.23" x="39.8413" y="174.2314">3</text><text fill="#000000" font-family="sans-serif" font-size="13" lengthAdjust="spacing" textLength="95.3862" x="51.0713" y="174.2314">Selects a station</text><polygon fill="#181818" points="43.8413,206.7852,33.8413,210.7852,43.8413,214.7852,39.8413,210.7852" style="stroke:#181818;stroke-width:1.0;"/><line style="stroke:#181818;stroke-width:1.0;stroke-dasharray:2.0,2.0;" x1="37.8413" x2="695.7412" y1="210.7852" y2="210.7852"/><text fill="#000000" font-family="sans-serif" font-size="13" font-weight="bold" lengthAdjust="spacing" textLength="7.23" x="49.8413" y="205.5225">4</text><text fill="#000000" font-family="sans-serif" font-size="13" lengthAdjust="spacing" textLength="338.9268" x="61.0713" y="205.5225">Ask to choose an option (station details or upgrade station)</text><polygon fill="#181818" points="679.7412,238.0762,689.7412,242.0762,679.7412,246.0762,683.7412,242.0762" style="stroke:#181818;stroke-width:1.0;"/><line style="stroke:#181818;stroke-width:1.0;" x1="32.8413" x2="685.7412" y1="242.0762" y2="242.0762"/><text fill="#000000" font-family="sans-serif" font-size="13" font-weight="bold" lengthAdjust="spacing" textLength="7.23" x="39.8413" y="236.8135">5</text><text fill="#000000" font-family="sans-serif" font-size="13" lengthAdjust="spacing" textLength="119.2344" x="51.0713" y="236.8135">Select station details</text><polygon fill="#181818" points="43.8413,269.3672,33.8413,273.3672,43.8413,277.3672,39.8413,273.3672" style="stroke:#181818;stroke-width:1.0;"/><line style="stroke:#181818;stroke-width:1.0;stroke-dasharray:2.0,2.0;" x1="37.8413" x2="695.7412" y1="273.3672" y2="273.3672"/><text fill="#000000" font-family="sans-serif" font-size="13" font-weight="bold" lengthAdjust="spacing" textLength="7.23" x="49.8413" y="268.1045">6</text><text fill="#000000" font-family="sans-serif" font-size="13" lengthAdjust="spacing" textLength="623.6699" x="61.0713" y="268.1045">Displays all details about the selected station, including the existing building and the demand/supply cargoes</text><!--SRC=[bPB1JiCm38RlVGfh9v2OkE-0XCG38FO4RkArqT8unCwWRu_RjGF13koKFxN_Jx_To36aZ0K763YnwmiF15egDNAfP7H7x6YlOoGev1HJ5tysI8-UFqBgu81Hg6cmAgSwj5HCE-K2czU88vKDeC1PDkRLu4B6fB3PxKTH6kRwMSxES4AbrT2SJzW-BIsmWpTwhoGge0mnY0B62AAeWPDy4rRaujiQOe7ju2L8DYs09mmHMnjo1S31eWj5czckZQS_m2kHzdE_uLRC_s8yot4QmlNCGe09E4zck5ieu4ajdu15ghahw2yvxszA1h-0jsx95hn6mPQhWlQqB8dy2d-0a5oiVdeKKvq-xUTCbxQ6E7_5vEUAfy7aezISumWEIySaLmRw0W00]--></g></svg>