<?xml version="1.0" encoding="us-ascii" standalone="no"?><svg xmlns="http://www.w3.org/2000/svg" xmlns:xlink="http://www.w3.org/1999/xlink" contentStyleType="text/css" height="797px" preserveAspectRatio="none" style="width:1644px;height:797px;background:#FFFFFF;" version="1.1" viewBox="0 0 1644 797" width="1644px" zoomAndPan="magnify"><defs/><g><text fill="#000000" font-family="sans-serif" font-size="14" font-weight="bold" lengthAdjust="spacing" textLength="189" x="720.75" y="22.6738">Class Diagram - Buy a Train</text><!--class ApplicationSession--><g id="elem_ApplicationSession"><rect codeLine="13" fill="#F1F1F1" height="94.9219" id="ApplicationSession" rx="2.5" ry="2.5" style="stroke:#181818;stroke-width:0.5;" width="151" x="23.5" y="275.6406"/><ellipse cx="38.5" cy="291.6406" fill="#ADD1B2" rx="11" ry="11" style="stroke:#181818;stroke-width:1.0;"/><path d="M41.2656,287.5156 Q41.4219,287.2969 41.6094,287.1875 Q41.7969,287.0781 42.0156,287.0781 Q42.3906,287.0781 42.625,287.3438 Q42.8594,287.5938 42.8594,288.2031 L42.8594,289.6563 Q42.8594,290.2656 42.625,290.5313 Q42.3906,290.7969 42.0156,290.7969 Q41.6719,290.7969 41.4688,290.5938 Q41.2656,290.4063 41.1563,289.8906 Q41.1094,289.5313 40.9219,289.3438 Q40.5938,288.9688 39.9844,288.75 Q39.375,288.5313 38.75,288.5313 Q37.9844,288.5313 37.3438,288.8594 Q36.7188,289.1875 36.2188,289.9375 Q35.7344,290.6875 35.7344,291.7188 L35.7344,292.8125 Q35.7344,294.0469 36.625,294.875 Q37.5156,295.6875 39.1094,295.6875 Q40.0469,295.6875 40.7031,295.4375 Q41.0938,295.2813 41.5156,294.8438 Q41.7813,294.5781 41.9219,294.5 Q42.0781,294.4219 42.2813,294.4219 Q42.6094,294.4219 42.8594,294.6875 Q43.125,294.9375 43.125,295.2813 Q43.125,295.625 42.7813,296.0313 Q42.2813,296.6094 41.4844,296.9375 Q40.4063,297.3906 39.1094,297.3906 Q37.5938,297.3906 36.3906,296.7656 Q35.4063,296.2656 34.7188,295.2031 Q34.0313,294.125 34.0313,292.8438 L34.0313,291.6875 Q34.0313,290.3594 34.6406,289.2188 Q35.2656,288.0625 36.3594,287.4531 Q37.4531,286.8281 38.6875,286.8281 Q39.4219,286.8281 40.0625,287 Q40.7188,287.1563 41.2656,287.5156 Z " fill="#000000"/><text fill="#000000" font-family="sans-serif" font-size="14" lengthAdjust="spacing" textLength="119" x="52.5" y="296.4941">ApplicationSession</text><line style="stroke:#181818;stroke-width:0.5;" x1="24.5" x2="173.5" y1="307.6406" y2="307.6406"/><line style="stroke:#181818;stroke-width:0.5;" x1="24.5" x2="173.5" y1="315.6406" y2="315.6406"/><text fill="#000000" font-family="sans-serif" font-size="14" lengthAdjust="spacing" textLength="134" x="29.5" y="332.3145">-ApplicationSession()</text><text fill="#000000" font-family="sans-serif" font-size="14" lengthAdjust="spacing" text-decoration="underline" textLength="91" x="29.5" y="347.9551">+getInstance()</text><text fill="#000000" font-family="sans-serif" font-size="14" lengthAdjust="spacing" textLength="136" x="29.5" y="363.5957">+getCurrentSession()</text></g><!--class UserSession--><g id="elem_UserSession"><rect codeLine="19" fill="#F1F1F1" height="63.6406" id="UserSession" rx="2.5" ry="2.5" style="stroke:#181818;stroke-width:0.5;" width="113" x="188.5" y="462.1406"/><ellipse cx="204.4" cy="478.1406" fill="#ADD1B2" rx="11" ry="11" style="stroke:#181818;stroke-width:1.0;"/><path d="M207.1656,474.0156 Q207.3219,473.7969 207.5094,473.6875 Q207.6969,473.5781 207.9156,473.5781 Q208.2906,473.5781 208.525,473.8438 Q208.7594,474.0938 208.7594,474.7031 L208.7594,476.1563 Q208.7594,476.7656 208.525,477.0313 Q208.2906,477.2969 207.9156,477.2969 Q207.5719,477.2969 207.3688,477.0938 Q207.1656,476.9063 207.0563,476.3906 Q207.0094,476.0313 206.8219,475.8438 Q206.4938,475.4688 205.8844,475.25 Q205.275,475.0313 204.65,475.0313 Q203.8844,475.0313 203.2438,475.3594 Q202.6188,475.6875 202.1188,476.4375 Q201.6344,477.1875 201.6344,478.2188 L201.6344,479.3125 Q201.6344,480.5469 202.525,481.375 Q203.4156,482.1875 205.0094,482.1875 Q205.9469,482.1875 206.6031,481.9375 Q206.9938,481.7813 207.4156,481.3438 Q207.6813,481.0781 207.8219,481 Q207.9781,480.9219 208.1813,480.9219 Q208.5094,480.9219 208.7594,481.1875 Q209.025,481.4375 209.025,481.7813 Q209.025,482.125 208.6813,482.5313 Q208.1813,483.1094 207.3844,483.4375 Q206.3063,483.8906 205.0094,483.8906 Q203.4938,483.8906 202.2906,483.2656 Q201.3063,482.7656 200.6188,481.7031 Q199.9313,480.625 199.9313,479.3438 L199.9313,478.1875 Q199.9313,476.8594 200.5406,475.7188 Q201.1656,474.5625 202.2594,473.9531 Q203.3531,473.3281 204.5875,473.3281 Q205.3219,473.3281 205.9625,473.5 Q206.6188,473.6563 207.1656,474.0156 Z " fill="#000000"/><text fill="#000000" font-family="sans-serif" font-size="14" lengthAdjust="spacing" textLength="79" x="218.6" y="482.9941">UserSession</text><line style="stroke:#181818;stroke-width:0.5;" x1="189.5" x2="300.5" y1="494.1406" y2="494.1406"/><line style="stroke:#181818;stroke-width:0.5;" x1="189.5" x2="300.5" y1="502.1406" y2="502.1406"/><text fill="#000000" font-family="sans-serif" font-size="14" lengthAdjust="spacing" textLength="101" x="194.5" y="518.8145">+getUserEmail()</text></g><!--class Player--><g id="elem_Player"><rect codeLine="23" fill="#F1F1F1" height="94.9219" id="Player" rx="2.5" ry="2.5" style="stroke:#181818;stroke-width:0.5;" width="277" x="1360.5" y="275.6406"/><ellipse cx="1474.75" cy="291.6406" fill="#ADD1B2" rx="11" ry="11" style="stroke:#181818;stroke-width:1.0;"/><path d="M1477.5156,287.5156 Q1477.6719,287.2969 1477.8594,287.1875 Q1478.0469,287.0781 1478.2656,287.0781 Q1478.6406,287.0781 1478.875,287.3438 Q1479.1094,287.5938 1479.1094,288.2031 L1479.1094,289.6563 Q1479.1094,290.2656 1478.875,290.5313 Q1478.6406,290.7969 1478.2656,290.7969 Q1477.9219,290.7969 1477.7188,290.5938 Q1477.5156,290.4063 1477.4063,289.8906 Q1477.3594,289.5313 1477.1719,289.3438 Q1476.8438,288.9688 1476.2344,288.75 Q1475.625,288.5313 1475,288.5313 Q1474.2344,288.5313 1473.5938,288.8594 Q1472.9688,289.1875 1472.4688,289.9375 Q1471.9844,290.6875 1471.9844,291.7188 L1471.9844,292.8125 Q1471.9844,294.0469 1472.875,294.875 Q1473.7656,295.6875 1475.3594,295.6875 Q1476.2969,295.6875 1476.9531,295.4375 Q1477.3438,295.2813 1477.7656,294.8438 Q1478.0313,294.5781 1478.1719,294.5 Q1478.3281,294.4219 1478.5313,294.4219 Q1478.8594,294.4219 1479.1094,294.6875 Q1479.375,294.9375 1479.375,295.2813 Q1479.375,295.625 1479.0313,296.0313 Q1478.5313,296.6094 1477.7344,296.9375 Q1476.6563,297.3906 1475.3594,297.3906 Q1473.8438,297.3906 1472.6406,296.7656 Q1471.6563,296.2656 1470.9688,295.2031 Q1470.2813,294.125 1470.2813,292.8438 L1470.2813,291.6875 Q1470.2813,290.3594 1470.8906,289.2188 Q1471.5156,288.0625 1472.6094,287.4531 Q1473.7031,286.8281 1474.9375,286.8281 Q1475.6719,286.8281 1476.3125,287 Q1476.9688,287.1563 1477.5156,287.5156 Z " fill="#000000"/><text fill="#000000" font-family="sans-serif" font-size="14" lengthAdjust="spacing" textLength="40" x="1495.25" y="296.4941">Player</text><line style="stroke:#181818;stroke-width:0.5;" x1="1361.5" x2="1636.5" y1="307.6406" y2="307.6406"/><text fill="#000000" font-family="sans-serif" font-size="14" lengthAdjust="spacing" textLength="89" x="1366.5" y="324.3145">-name : String</text><text fill="#000000" font-family="sans-serif" font-size="14" lengthAdjust="spacing" textLength="104" x="1366.5" y="339.9551">-budget : double</text><line style="stroke:#181818;stroke-width:0.5;" x1="1361.5" x2="1636.5" y1="346.9219" y2="346.9219"/><text fill="#000000" font-family="sans-serif" font-size="14" lengthAdjust="spacing" textLength="265" x="1366.5" y="363.5957">+deductPriceFromBudget(price) : boolean</text></g><!--class Train--><g id="elem_Train"><rect codeLine="29" fill="#F1F1F1" height="94.9219" id="Train" rx="2.5" ry="2.5" style="stroke:#181818;stroke-width:0.5;" width="168" x="1265" y="446.6406"/><ellipse cx="1328.25" cy="462.6406" fill="#ADD1B2" rx="11" ry="11" style="stroke:#181818;stroke-width:1.0;"/><path d="M1331.0156,458.5156 Q1331.1719,458.2969 1331.3594,458.1875 Q1331.5469,458.0781 1331.7656,458.0781 Q1332.1406,458.0781 1332.375,458.3438 Q1332.6094,458.5938 1332.6094,459.2031 L1332.6094,460.6563 Q1332.6094,461.2656 1332.375,461.5313 Q1332.1406,461.7969 1331.7656,461.7969 Q1331.4219,461.7969 1331.2188,461.5938 Q1331.0156,461.4063 1330.9063,460.8906 Q1330.8594,460.5313 1330.6719,460.3438 Q1330.3438,459.9688 1329.7344,459.75 Q1329.125,459.5313 1328.5,459.5313 Q1327.7344,459.5313 1327.0938,459.8594 Q1326.4688,460.1875 1325.9688,460.9375 Q1325.4844,461.6875 1325.4844,462.7188 L1325.4844,463.8125 Q1325.4844,465.0469 1326.375,465.875 Q1327.2656,466.6875 1328.8594,466.6875 Q1329.7969,466.6875 1330.4531,466.4375 Q1330.8438,466.2813 1331.2656,465.8438 Q1331.5313,465.5781 1331.6719,465.5 Q1331.8281,465.4219 1332.0313,465.4219 Q1332.3594,465.4219 1332.6094,465.6875 Q1332.875,465.9375 1332.875,466.2813 Q1332.875,466.625 1332.5313,467.0313 Q1332.0313,467.6094 1331.2344,467.9375 Q1330.1563,468.3906 1328.8594,468.3906 Q1327.3438,468.3906 1326.1406,467.7656 Q1325.1563,467.2656 1324.4688,466.2031 Q1323.7813,465.125 1323.7813,463.8438 L1323.7813,462.6875 Q1323.7813,461.3594 1324.3906,460.2188 Q1325.0156,459.0625 1326.1094,458.4531 Q1327.2031,457.8281 1328.4375,457.8281 Q1329.1719,457.8281 1329.8125,458 Q1330.4688,458.1563 1331.0156,458.5156 Z " fill="#000000"/><text fill="#000000" font-family="sans-serif" font-size="14" lengthAdjust="spacing" textLength="33" x="1348.75" y="467.4941">Train</text><line style="stroke:#181818;stroke-width:0.5;" x1="1266" x2="1432" y1="478.6406" y2="478.6406"/><text fill="#000000" font-family="sans-serif" font-size="14" lengthAdjust="spacing" textLength="43" x="1271" y="495.3145">-id : int</text><text fill="#000000" font-family="sans-serif" font-size="14" lengthAdjust="spacing" textLength="156" x="1271" y="510.9551">-locomotive : Locomotive</text><line style="stroke:#181818;stroke-width:0.5;" x1="1266" x2="1432" y1="517.9219" y2="517.9219"/><text fill="#000000" font-family="sans-serif" font-size="14" lengthAdjust="spacing" textLength="137" x="1271" y="534.5957">+Train(id, locomotive)</text></g><!--class Locomotive--><g id="elem_Locomotive"><rect codeLine="36" fill="#F1F1F1" height="173.125" id="Locomotive" rx="2.5" ry="2.5" style="stroke:#181818;stroke-width:0.5;" width="480" x="488" y="617.6406"/><ellipse cx="687.75" cy="633.6406" fill="#ADD1B2" rx="11" ry="11" style="stroke:#181818;stroke-width:1.0;"/><path d="M690.5156,629.5156 Q690.6719,629.2969 690.8594,629.1875 Q691.0469,629.0781 691.2656,629.0781 Q691.6406,629.0781 691.875,629.3438 Q692.1094,629.5938 692.1094,630.2031 L692.1094,631.6563 Q692.1094,632.2656 691.875,632.5313 Q691.6406,632.7969 691.2656,632.7969 Q690.9219,632.7969 690.7188,632.5938 Q690.5156,632.4063 690.4063,631.8906 Q690.3594,631.5313 690.1719,631.3438 Q689.8438,630.9688 689.2344,630.75 Q688.625,630.5313 688,630.5313 Q687.2344,630.5313 686.5938,630.8594 Q685.9688,631.1875 685.4688,631.9375 Q684.9844,632.6875 684.9844,633.7188 L684.9844,634.8125 Q684.9844,636.0469 685.875,636.875 Q686.7656,637.6875 688.3594,637.6875 Q689.2969,637.6875 689.9531,637.4375 Q690.3438,637.2813 690.7656,636.8438 Q691.0313,636.5781 691.1719,636.5 Q691.3281,636.4219 691.5313,636.4219 Q691.8594,636.4219 692.1094,636.6875 Q692.375,636.9375 692.375,637.2813 Q692.375,637.625 692.0313,638.0313 Q691.5313,638.6094 690.7344,638.9375 Q689.6563,639.3906 688.3594,639.3906 Q686.8438,639.3906 685.6406,638.7656 Q684.6563,638.2656 683.9688,637.2031 Q683.2813,636.125 683.2813,634.8438 L683.2813,633.6875 Q683.2813,632.3594 683.8906,631.2188 Q684.5156,630.0625 685.6094,629.4531 Q686.7031,628.8281 687.9375,628.8281 Q688.6719,628.8281 689.3125,629 Q689.9688,629.1563 690.5156,629.5156 Z " fill="#000000"/><text fill="#000000" font-family="sans-serif" font-size="14" lengthAdjust="spacing" textLength="72" x="708.25" y="638.4941">Locomotive</text><line style="stroke:#181818;stroke-width:0.5;" x1="489" x2="967" y1="649.6406" y2="649.6406"/><text fill="#000000" font-family="sans-serif" font-size="14" lengthAdjust="spacing" textLength="92" x="494" y="666.3145">-model : String</text><text fill="#000000" font-family="sans-serif" font-size="14" lengthAdjust="spacing" textLength="70" x="494" y="681.9551">-power : int</text><text fill="#000000" font-family="sans-serif" font-size="14" lengthAdjust="spacing" textLength="137" x="494" y="697.5957">-acceleration : double</text><text fill="#000000" font-family="sans-serif" font-size="14" lengthAdjust="spacing" textLength="121" x="494" y="713.2363">-topSpeed : double</text><text fill="#000000" font-family="sans-serif" font-size="14" lengthAdjust="spacing" textLength="90" x="494" y="728.877">-startYear : int</text><text fill="#000000" font-family="sans-serif" font-size="14" lengthAdjust="spacing" textLength="91" x="494" y="744.5176">-price : double</text><text fill="#000000" font-family="sans-serif" font-size="14" lengthAdjust="spacing" textLength="79" x="494" y="760.1582">-type : enum</text><line style="stroke:#181818;stroke-width:0.5;" x1="489" x2="967" y1="767.125" y2="767.125"/><text fill="#000000" font-family="sans-serif" font-size="14" lengthAdjust="spacing" textLength="468" x="494" y="783.7988">+Locomotive(model, power, acceleration, topSpeed, startYear, price, type)</text></g><!--class Scenario--><g id="elem_Scenario"><rect codeLine="48" fill="#F1F1F1" height="94.9219" id="Scenario" rx="2.5" ry="2.5" style="stroke:#181818;stroke-width:0.5;" width="274" x="432" y="446.6406"/><ellipse cx="536.75" cy="462.6406" fill="#ADD1B2" rx="11" ry="11" style="stroke:#181818;stroke-width:1.0;"/><path d="M539.5156,458.5156 Q539.6719,458.2969 539.8594,458.1875 Q540.0469,458.0781 540.2656,458.0781 Q540.6406,458.0781 540.875,458.3438 Q541.1094,458.5938 541.1094,459.2031 L541.1094,460.6563 Q541.1094,461.2656 540.875,461.5313 Q540.6406,461.7969 540.2656,461.7969 Q539.9219,461.7969 539.7188,461.5938 Q539.5156,461.4063 539.4063,460.8906 Q539.3594,460.5313 539.1719,460.3438 Q538.8438,459.9688 538.2344,459.75 Q537.625,459.5313 537,459.5313 Q536.2344,459.5313 535.5938,459.8594 Q534.9688,460.1875 534.4688,460.9375 Q533.9844,461.6875 533.9844,462.7188 L533.9844,463.8125 Q533.9844,465.0469 534.875,465.875 Q535.7656,466.6875 537.3594,466.6875 Q538.2969,466.6875 538.9531,466.4375 Q539.3438,466.2813 539.7656,465.8438 Q540.0313,465.5781 540.1719,465.5 Q540.3281,465.4219 540.5313,465.4219 Q540.8594,465.4219 541.1094,465.6875 Q541.375,465.9375 541.375,466.2813 Q541.375,466.625 541.0313,467.0313 Q540.5313,467.6094 539.7344,467.9375 Q538.6563,468.3906 537.3594,468.3906 Q535.8438,468.3906 534.6406,467.7656 Q533.6563,467.2656 532.9688,466.2031 Q532.2813,465.125 532.2813,463.8438 L532.2813,462.6875 Q532.2813,461.3594 532.8906,460.2188 Q533.5156,459.0625 534.6094,458.4531 Q535.7031,457.8281 536.9375,457.8281 Q537.6719,457.8281 538.3125,458 Q538.9688,458.1563 539.5156,458.5156 Z " fill="#000000"/><text fill="#000000" font-family="sans-serif" font-size="14" lengthAdjust="spacing" textLength="56" x="557.25" y="467.4941">Scenario</text><line style="stroke:#181818;stroke-width:0.5;" x1="433" x2="705" y1="478.6406" y2="478.6406"/><text fill="#000000" font-family="sans-serif" font-size="14" lengthAdjust="spacing" textLength="89" x="438" y="495.3145">-name : String</text><text fill="#000000" font-family="sans-serif" font-size="14" lengthAdjust="spacing" textLength="262" x="438" y="510.9551">-availableLocomotives : List&lt;Locomotive&gt;</text><text fill="#000000" font-family="sans-serif" font-size="14" lengthAdjust="spacing" textLength="120" x="438" y="526.5957">-currentDate : date</text><line style="stroke:#181818;stroke-width:0.5;" x1="433" x2="705" y1="533.5625" y2="533.5625"/></g><!--class LocomotiveRepository--><g id="elem_LocomotiveRepository"><rect codeLine="54" fill="#F1F1F1" height="79.2813" id="LocomotiveRepository" rx="2.5" ry="2.5" style="stroke:#181818;stroke-width:0.5;" width="240" x="877" y="283.6406"/><ellipse cx="922.75" cy="299.6406" fill="#ADD1B2" rx="11" ry="11" style="stroke:#181818;stroke-width:1.0;"/><path d="M925.5156,295.5156 Q925.6719,295.2969 925.8594,295.1875 Q926.0469,295.0781 926.2656,295.0781 Q926.6406,295.0781 926.875,295.3438 Q927.1094,295.5938 927.1094,296.2031 L927.1094,297.6563 Q927.1094,298.2656 926.875,298.5313 Q926.6406,298.7969 926.2656,298.7969 Q925.9219,298.7969 925.7188,298.5938 Q925.5156,298.4063 925.4063,297.8906 Q925.3594,297.5313 925.1719,297.3438 Q924.8438,296.9688 924.2344,296.75 Q923.625,296.5313 923,296.5313 Q922.2344,296.5313 921.5938,296.8594 Q920.9688,297.1875 920.4688,297.9375 Q919.9844,298.6875 919.9844,299.7188 L919.9844,300.8125 Q919.9844,302.0469 920.875,302.875 Q921.7656,303.6875 923.3594,303.6875 Q924.2969,303.6875 924.9531,303.4375 Q925.3438,303.2813 925.7656,302.8438 Q926.0313,302.5781 926.1719,302.5 Q926.3281,302.4219 926.5313,302.4219 Q926.8594,302.4219 927.1094,302.6875 Q927.375,302.9375 927.375,303.2813 Q927.375,303.625 927.0313,304.0313 Q926.5313,304.6094 925.7344,304.9375 Q924.6563,305.3906 923.3594,305.3906 Q921.8438,305.3906 920.6406,304.7656 Q919.6563,304.2656 918.9688,303.2031 Q918.2813,302.125 918.2813,300.8438 L918.2813,299.6875 Q918.2813,298.3594 918.8906,297.2188 Q919.5156,296.0625 920.6094,295.4531 Q921.7031,294.8281 922.9375,294.8281 Q923.6719,294.8281 924.3125,295 Q924.9688,295.1563 925.5156,295.5156 Z " fill="#000000"/><text fill="#000000" font-family="sans-serif" font-size="14" lengthAdjust="spacing" textLength="140" x="943.25" y="304.4941">LocomotiveRepository</text><line style="stroke:#181818;stroke-width:0.5;" x1="878" x2="1116" y1="315.6406" y2="315.6406"/><line style="stroke:#181818;stroke-width:0.5;" x1="878" x2="1116" y1="323.6406" y2="323.6406"/><text fill="#000000" font-family="sans-serif" font-size="14" lengthAdjust="spacing" textLength="228" x="883" y="340.3145">+getAvailableLocomotives(scenario)</text><text fill="#000000" font-family="sans-serif" font-size="14" lengthAdjust="spacing" textLength="202" x="883" y="355.9551">+getLocomotiveByModel(model)</text></g><!--class TrainRepository--><g id="elem_TrainRepository"><rect codeLine="59" fill="#F1F1F1" height="79.2813" id="TrainRepository" rx="2.5" ry="2.5" style="stroke:#181818;stroke-width:0.5;" width="219" x="622.5" y="283.6406"/><ellipse cx="677.25" cy="299.6406" fill="#ADD1B2" rx="11" ry="11" style="stroke:#181818;stroke-width:1.0;"/><path d="M680.0156,295.5156 Q680.1719,295.2969 680.3594,295.1875 Q680.5469,295.0781 680.7656,295.0781 Q681.1406,295.0781 681.375,295.3438 Q681.6094,295.5938 681.6094,296.2031 L681.6094,297.6563 Q681.6094,298.2656 681.375,298.5313 Q681.1406,298.7969 680.7656,298.7969 Q680.4219,298.7969 680.2188,298.5938 Q680.0156,298.4063 679.9063,297.8906 Q679.8594,297.5313 679.6719,297.3438 Q679.3438,296.9688 678.7344,296.75 Q678.125,296.5313 677.5,296.5313 Q676.7344,296.5313 676.0938,296.8594 Q675.4688,297.1875 674.9688,297.9375 Q674.4844,298.6875 674.4844,299.7188 L674.4844,300.8125 Q674.4844,302.0469 675.375,302.875 Q676.2656,303.6875 677.8594,303.6875 Q678.7969,303.6875 679.4531,303.4375 Q679.8438,303.2813 680.2656,302.8438 Q680.5313,302.5781 680.6719,302.5 Q680.8281,302.4219 681.0313,302.4219 Q681.3594,302.4219 681.6094,302.6875 Q681.875,302.9375 681.875,303.2813 Q681.875,303.625 681.5313,304.0313 Q681.0313,304.6094 680.2344,304.9375 Q679.1563,305.3906 677.8594,305.3906 Q676.3438,305.3906 675.1406,304.7656 Q674.1563,304.2656 673.4688,303.2031 Q672.7813,302.125 672.7813,300.8438 L672.7813,299.6875 Q672.7813,298.3594 673.3906,297.2188 Q674.0156,296.0625 675.1094,295.4531 Q676.2031,294.8281 677.4375,294.8281 Q678.1719,294.8281 678.8125,295 Q679.4688,295.1563 680.0156,295.5156 Z " fill="#000000"/><text fill="#000000" font-family="sans-serif" font-size="14" lengthAdjust="spacing" textLength="101" x="697.75" y="304.4941">TrainRepository</text><line style="stroke:#181818;stroke-width:0.5;" x1="623.5" x2="840.5" y1="315.6406" y2="315.6406"/><line style="stroke:#181818;stroke-width:0.5;" x1="623.5" x2="840.5" y1="323.6406" y2="323.6406"/><text fill="#000000" font-family="sans-serif" font-size="14" lengthAdjust="spacing" textLength="184" x="628.5" y="340.3145">+createNewTrain(locomotive)</text><text fill="#000000" font-family="sans-serif" font-size="14" lengthAdjust="spacing" textLength="207" x="628.5" y="355.9551">+addTrainToPlayer(player, train)</text></g><!--class PlayerRepository--><g id="elem_PlayerRepository"><rect codeLine="64" fill="#F1F1F1" height="63.6406" id="PlayerRepository" rx="2.5" ry="2.5" style="stroke:#181818;stroke-width:0.5;" width="173" x="1152.5" y="291.1406"/><ellipse cx="1182.35" cy="307.1406" fill="#ADD1B2" rx="11" ry="11" style="stroke:#181818;stroke-width:1.0;"/><path d="M1185.1156,303.0156 Q1185.2719,302.7969 1185.4594,302.6875 Q1185.6469,302.5781 1185.8656,302.5781 Q1186.2406,302.5781 1186.475,302.8438 Q1186.7094,303.0938 1186.7094,303.7031 L1186.7094,305.1563 Q1186.7094,305.7656 1186.475,306.0313 Q1186.2406,306.2969 1185.8656,306.2969 Q1185.5219,306.2969 1185.3188,306.0938 Q1185.1156,305.9063 1185.0063,305.3906 Q1184.9594,305.0313 1184.7719,304.8438 Q1184.4438,304.4688 1183.8344,304.25 Q1183.225,304.0313 1182.6,304.0313 Q1181.8344,304.0313 1181.1938,304.3594 Q1180.5688,304.6875 1180.0688,305.4375 Q1179.5844,306.1875 1179.5844,307.2188 L1179.5844,308.3125 Q1179.5844,309.5469 1180.475,310.375 Q1181.3656,311.1875 1182.9594,311.1875 Q1183.8969,311.1875 1184.5531,310.9375 Q1184.9438,310.7813 1185.3656,310.3438 Q1185.6313,310.0781 1185.7719,310 Q1185.9281,309.9219 1186.1313,309.9219 Q1186.4594,309.9219 1186.7094,310.1875 Q1186.975,310.4375 1186.975,310.7813 Q1186.975,311.125 1186.6313,311.5313 Q1186.1313,312.1094 1185.3344,312.4375 Q1184.2563,312.8906 1182.9594,312.8906 Q1181.4438,312.8906 1180.2406,312.2656 Q1179.2563,311.7656 1178.5688,310.7031 Q1177.8813,309.625 1177.8813,308.3438 L1177.8813,307.1875 Q1177.8813,305.8594 1178.4906,304.7188 Q1179.1156,303.5625 1180.2094,302.9531 Q1181.3031,302.3281 1182.5375,302.3281 Q1183.2719,302.3281 1183.9125,302.5 Q1184.5688,302.6563 1185.1156,303.0156 Z " fill="#000000"/><text fill="#000000" font-family="sans-serif" font-size="14" lengthAdjust="spacing" textLength="108" x="1199.65" y="311.9941">PlayerRepository</text><line style="stroke:#181818;stroke-width:0.5;" x1="1153.5" x2="1324.5" y1="323.1406" y2="323.1406"/><line style="stroke:#181818;stroke-width:0.5;" x1="1153.5" x2="1324.5" y1="331.1406" y2="331.1406"/><text fill="#000000" font-family="sans-serif" font-size="14" lengthAdjust="spacing" textLength="161" x="1158.5" y="347.8145">+getPlayerByEmail(email)</text></g><!--class ScenarioRepository--><g id="elem_ScenarioRepository"><rect codeLine="68" fill="#F1F1F1" height="63.6406" id="ScenarioRepository" rx="2.5" ry="2.5" style="stroke:#181818;stroke-width:0.5;" width="156" x="360" y="291.1406"/><ellipse cx="375" cy="307.1406" fill="#ADD1B2" rx="11" ry="11" style="stroke:#181818;stroke-width:1.0;"/><path d="M377.7656,303.0156 Q377.9219,302.7969 378.1094,302.6875 Q378.2969,302.5781 378.5156,302.5781 Q378.8906,302.5781 379.125,302.8438 Q379.3594,303.0938 379.3594,303.7031 L379.3594,305.1563 Q379.3594,305.7656 379.125,306.0313 Q378.8906,306.2969 378.5156,306.2969 Q378.1719,306.2969 377.9688,306.0938 Q377.7656,305.9063 377.6563,305.3906 Q377.6094,305.0313 377.4219,304.8438 Q377.0938,304.4688 376.4844,304.25 Q375.875,304.0313 375.25,304.0313 Q374.4844,304.0313 373.8438,304.3594 Q373.2188,304.6875 372.7188,305.4375 Q372.2344,306.1875 372.2344,307.2188 L372.2344,308.3125 Q372.2344,309.5469 373.125,310.375 Q374.0156,311.1875 375.6094,311.1875 Q376.5469,311.1875 377.2031,310.9375 Q377.5938,310.7813 378.0156,310.3438 Q378.2813,310.0781 378.4219,310 Q378.5781,309.9219 378.7813,309.9219 Q379.1094,309.9219 379.3594,310.1875 Q379.625,310.4375 379.625,310.7813 Q379.625,311.125 379.2813,311.5313 Q378.7813,312.1094 377.9844,312.4375 Q376.9063,312.8906 375.6094,312.8906 Q374.0938,312.8906 372.8906,312.2656 Q371.9063,311.7656 371.2188,310.7031 Q370.5313,309.625 370.5313,308.3438 L370.5313,307.1875 Q370.5313,305.8594 371.1406,304.7188 Q371.7656,303.5625 372.8594,302.9531 Q373.9531,302.3281 375.1875,302.3281 Q375.9219,302.3281 376.5625,302.5 Q377.2188,302.6563 377.7656,303.0156 Z " fill="#000000"/><text fill="#000000" font-family="sans-serif" font-size="14" lengthAdjust="spacing" textLength="124" x="389" y="311.9941">ScenarioRepository</text><line style="stroke:#181818;stroke-width:0.5;" x1="361" x2="515" y1="323.1406" y2="323.1406"/><line style="stroke:#181818;stroke-width:0.5;" x1="361" x2="515" y1="331.1406" y2="331.1406"/><text fill="#000000" font-family="sans-serif" font-size="14" lengthAdjust="spacing" textLength="142" x="366" y="347.8145">+getCurrentScenario()</text></g><!--class Repositories--><g id="elem_Repositories"><rect codeLine="72" fill="#F1F1F1" height="141.8438" id="Repositories" rx="2.5" ry="2.5" style="stroke:#181818;stroke-width:0.5;" width="190" x="886" y="57.6406"/><ellipse cx="937.25" cy="73.6406" fill="#ADD1B2" rx="11" ry="11" style="stroke:#181818;stroke-width:1.0;"/><path d="M940.0156,69.5156 Q940.1719,69.2969 940.3594,69.1875 Q940.5469,69.0781 940.7656,69.0781 Q941.1406,69.0781 941.375,69.3438 Q941.6094,69.5938 941.6094,70.2031 L941.6094,71.6563 Q941.6094,72.2656 941.375,72.5313 Q941.1406,72.7969 940.7656,72.7969 Q940.4219,72.7969 940.2188,72.5938 Q940.0156,72.4063 939.9063,71.8906 Q939.8594,71.5313 939.6719,71.3438 Q939.3438,70.9688 938.7344,70.75 Q938.125,70.5313 937.5,70.5313 Q936.7344,70.5313 936.0938,70.8594 Q935.4688,71.1875 934.9688,71.9375 Q934.4844,72.6875 934.4844,73.7188 L934.4844,74.8125 Q934.4844,76.0469 935.375,76.875 Q936.2656,77.6875 937.8594,77.6875 Q938.7969,77.6875 939.4531,77.4375 Q939.8438,77.2813 940.2656,76.8438 Q940.5313,76.5781 940.6719,76.5 Q940.8281,76.4219 941.0313,76.4219 Q941.3594,76.4219 941.6094,76.6875 Q941.875,76.9375 941.875,77.2813 Q941.875,77.625 941.5313,78.0313 Q941.0313,78.6094 940.2344,78.9375 Q939.1563,79.3906 937.8594,79.3906 Q936.3438,79.3906 935.1406,78.7656 Q934.1563,78.2656 933.4688,77.2031 Q932.7813,76.125 932.7813,74.8438 L932.7813,73.6875 Q932.7813,72.3594 933.3906,71.2188 Q934.0156,70.0625 935.1094,69.4531 Q936.2031,68.8281 937.4375,68.8281 Q938.1719,68.8281 938.8125,69 Q939.4688,69.1563 940.0156,69.5156 Z " fill="#000000"/><text fill="#000000" font-family="sans-serif" font-size="14" lengthAdjust="spacing" textLength="79" x="957.75" y="78.4941">Repositories</text><line style="stroke:#181818;stroke-width:0.5;" x1="887" x2="1075" y1="89.6406" y2="89.6406"/><line style="stroke:#181818;stroke-width:0.5;" x1="887" x2="1075" y1="97.6406" y2="97.6406"/><text fill="#000000" font-family="sans-serif" font-size="14" lengthAdjust="spacing" textLength="94" x="892" y="114.3145">-Repositories()</text><text fill="#000000" font-family="sans-serif" font-size="14" lengthAdjust="spacing" text-decoration="underline" textLength="91" x="892" y="129.9551">+getInstance()</text><text fill="#000000" font-family="sans-serif" font-size="14" lengthAdjust="spacing" textLength="178" x="892" y="145.5957">+getLocomotiveRepository()</text><text fill="#000000" font-family="sans-serif" font-size="14" lengthAdjust="spacing" textLength="162" x="892" y="161.2363">+getScenarioRepository()</text><text fill="#000000" font-family="sans-serif" font-size="14" lengthAdjust="spacing" textLength="139" x="892" y="176.877">+getTrainRepository()</text><text fill="#000000" font-family="sans-serif" font-size="14" lengthAdjust="spacing" textLength="146" x="892" y="192.5176">+getPlayerRepository()</text></g><!--class BuyTrainController--><g id="elem_BuyTrainController"><rect codeLine="81" fill="#F1F1F1" height="126.2031" id="BuyTrainController" rx="2.5" ry="2.5" style="stroke:#181818;stroke-width:0.5;" width="211" x="430.5" y="65.6406"/><ellipse cx="472.5" cy="81.6406" fill="#ADD1B2" rx="11" ry="11" style="stroke:#181818;stroke-width:1.0;"/><path d="M475.2656,77.5156 Q475.4219,77.2969 475.6094,77.1875 Q475.7969,77.0781 476.0156,77.0781 Q476.3906,77.0781 476.625,77.3438 Q476.8594,77.5938 476.8594,78.2031 L476.8594,79.6563 Q476.8594,80.2656 476.625,80.5313 Q476.3906,80.7969 476.0156,80.7969 Q475.6719,80.7969 475.4688,80.5938 Q475.2656,80.4063 475.1563,79.8906 Q475.1094,79.5313 474.9219,79.3438 Q474.5938,78.9688 473.9844,78.75 Q473.375,78.5313 472.75,78.5313 Q471.9844,78.5313 471.3438,78.8594 Q470.7188,79.1875 470.2188,79.9375 Q469.7344,80.6875 469.7344,81.7188 L469.7344,82.8125 Q469.7344,84.0469 470.625,84.875 Q471.5156,85.6875 473.1094,85.6875 Q474.0469,85.6875 474.7031,85.4375 Q475.0938,85.2813 475.5156,84.8438 Q475.7813,84.5781 475.9219,84.5 Q476.0781,84.4219 476.2813,84.4219 Q476.6094,84.4219 476.8594,84.6875 Q477.125,84.9375 477.125,85.2813 Q477.125,85.625 476.7813,86.0313 Q476.2813,86.6094 475.4844,86.9375 Q474.4063,87.3906 473.1094,87.3906 Q471.5938,87.3906 470.3906,86.7656 Q469.4063,86.2656 468.7188,85.2031 Q468.0313,84.125 468.0313,82.8438 L468.0313,81.6875 Q468.0313,80.3594 468.6406,79.2188 Q469.2656,78.0625 470.3594,77.4531 Q471.4531,76.8281 472.6875,76.8281 Q473.4219,76.8281 474.0625,77 Q474.7188,77.1563 475.2656,77.5156 Z " fill="#000000"/><text fill="#000000" font-family="sans-serif" font-size="14" lengthAdjust="spacing" textLength="119" x="492.5" y="86.4941">BuyTrainController</text><line style="stroke:#181818;stroke-width:0.5;" x1="431.5" x2="640.5" y1="97.6406" y2="97.6406"/><line style="stroke:#181818;stroke-width:0.5;" x1="431.5" x2="640.5" y1="105.6406" y2="105.6406"/><text fill="#000000" font-family="sans-serif" font-size="14" lengthAdjust="spacing" textLength="137" x="436.5" y="122.3145">+BuyTrainController()</text><text fill="#000000" font-family="sans-serif" font-size="14" lengthAdjust="spacing" textLength="174" x="436.5" y="137.9551">+getAvailableLocomotives()</text><text fill="#000000" font-family="sans-serif" font-size="14" lengthAdjust="spacing" textLength="179" x="436.5" y="153.5957">+buyTrain(locomotiveModel)</text><text fill="#000000" font-family="sans-serif" font-size="14" lengthAdjust="spacing" textLength="199" x="436.5" y="169.2363">-getLocomotiveByModel(model)</text><text fill="#000000" font-family="sans-serif" font-size="14" lengthAdjust="spacing" textLength="158" x="436.5" y="184.877">-getPlayerFromSession()</text></g><g id="elem_GMN14"><path d="M677,109.1406 L677,124.6406 L641.6,128.6406 L677,132.6406 L677,148.1875 A0,0 0 0 0 677,148.1875 L851,148.1875 A0,0 0 0 0 851,148.1875 L851,119.1406 L841,109.1406 L677,109.1406 A0,0 0 0 0 677,109.1406 " fill="#FEFFDD" style="stroke:#181818;stroke-width:0.5;"/><path d="M841,109.1406 L841,119.1406 L851,119.1406 L841,109.1406 " fill="#FEFFDD" style="stroke:#181818;stroke-width:0.5;"/><text fill="#000000" font-family="sans-serif" font-size="13" lengthAdjust="spacing" textLength="153" x="683" y="125.9092">The locomotive is selected</text><text fill="#000000" font-family="sans-serif" font-size="13" lengthAdjust="spacing" textLength="121" x="683" y="140.4326">from the available list</text></g><g id="elem_GMN17"><path d="M915,474.6406 L915,513.6875 A0,0 0 0 0 915,513.6875 L1079,513.6875 A0,0 0 0 0 1079,513.6875 L1079,484.6406 L1069,474.6406 L1001,474.6406 L997,362.9106 L993,474.6406 L915,474.6406 A0,0 0 0 0 915,474.6406 " fill="#FEFFDD" style="stroke:#181818;stroke-width:0.5;"/><path d="M1069,474.6406 L1069,484.6406 L1079,484.6406 L1069,474.6406 " fill="#FEFFDD" style="stroke:#181818;stroke-width:0.5;"/><text fill="#000000" font-family="sans-serif" font-size="13" lengthAdjust="spacing" textLength="111" x="921" y="491.4092">- Used for retrieving</text><text fill="#000000" font-family="sans-serif" font-size="13" lengthAdjust="spacing" textLength="143" x="921" y="505.9326">the available locomotives</text></g><!--class BuyTrainUI--><g id="elem_BuyTrainUI"><rect codeLine="99" fill="#F1F1F1" height="48" id="BuyTrainUI" rx="2.5" ry="2.5" style="stroke:#181818;stroke-width:0.5;" width="101" x="294.5" y="104.6406"/><ellipse cx="309.5" cy="120.6406" fill="#ADD1B2" rx="11" ry="11" style="stroke:#181818;stroke-width:1.0;"/><path d="M312.2656,116.5156 Q312.4219,116.2969 312.6094,116.1875 Q312.7969,116.0781 313.0156,116.0781 Q313.3906,116.0781 313.625,116.3438 Q313.8594,116.5938 313.8594,117.2031 L313.8594,118.6563 Q313.8594,119.2656 313.625,119.5313 Q313.3906,119.7969 313.0156,119.7969 Q312.6719,119.7969 312.4688,119.5938 Q312.2656,119.4063 312.1563,118.8906 Q312.1094,118.5313 311.9219,118.3438 Q311.5938,117.9688 310.9844,117.75 Q310.375,117.5313 309.75,117.5313 Q308.9844,117.5313 308.3438,117.8594 Q307.7188,118.1875 307.2188,118.9375 Q306.7344,119.6875 306.7344,120.7188 L306.7344,121.8125 Q306.7344,123.0469 307.625,123.875 Q308.5156,124.6875 310.1094,124.6875 Q311.0469,124.6875 311.7031,124.4375 Q312.0938,124.2813 312.5156,123.8438 Q312.7813,123.5781 312.9219,123.5 Q313.0781,123.4219 313.2813,123.4219 Q313.6094,123.4219 313.8594,123.6875 Q314.125,123.9375 314.125,124.2813 Q314.125,124.625 313.7813,125.0313 Q313.2813,125.6094 312.4844,125.9375 Q311.4063,126.3906 310.1094,126.3906 Q308.5938,126.3906 307.3906,125.7656 Q306.4063,125.2656 305.7188,124.2031 Q305.0313,123.125 305.0313,121.8438 L305.0313,120.6875 Q305.0313,119.3594 305.6406,118.2188 Q306.2656,117.0625 307.3594,116.4531 Q308.4531,115.8281 309.6875,115.8281 Q310.4219,115.8281 311.0625,116 Q311.7188,116.1563 312.2656,116.5156 Z " fill="#000000"/><text fill="#000000" font-family="sans-serif" font-size="14" lengthAdjust="spacing" textLength="69" x="323.5" y="125.4941">BuyTrainUI</text><line style="stroke:#181818;stroke-width:0.5;" x1="295.5" x2="394.5" y1="136.6406" y2="136.6406"/><line style="stroke:#181818;stroke-width:0.5;" x1="295.5" x2="394.5" y1="144.6406" y2="144.6406"/></g><!--link BuyTrainUI to BuyTrainController--><g id="link_BuyTrainUI_BuyTrainController"><path codeLine="102" d="M395.78,128.6406 C403.35,128.6406 408.67,128.6406 408.67,128.6406 C408.67,128.6406 415.71,128.6406 425.11,128.6406 " fill="none" id="BuyTrainUI-to-BuyTrainController" style="stroke:#181818;stroke-width:1.0;stroke-dasharray:7.0,7.0;"/><polygon fill="#181818" points="430.22,128.6406,421.22,124.6406,425.22,128.6406,421.22,132.6406,430.22,128.6406" style="stroke:#181818;stroke-width:1.0;"/></g><!--link BuyTrainController to ApplicationSession--><g id="link_BuyTrainController_ApplicationSession"><path codeLine="104" d="M430.36,189.7606 C419.87,195.7306 413,199.6406 413,199.6406 C413,199.6406 281,229.6406 281,229.6406 C281,229.6406 228.08,256.5406 179.31,281.3206 " fill="none" id="BuyTrainController-to-ApplicationSession" style="stroke:#181818;stroke-width:1.0;stroke-dasharray:7.0,7.0;"/><polygon fill="#181818" points="174.6,283.7206,184.4363,283.2231,179.0606,281.4617,180.822,276.0861,174.6,283.7206" style="stroke:#181818;stroke-width:1.0;"/></g><!--link BuyTrainController to UserSession--><g id="link_BuyTrainController_UserSession"><path codeLine="105" d="M453.87,191.7706 C401.34,231.5106 343,275.6406 343,275.6406 C343,275.6406 288.99,395.5106 261.16,457.2706 " fill="none" id="BuyTrainController-to-UserSession" style="stroke:#181818;stroke-width:1.0;stroke-dasharray:7.0,7.0;"/><polygon fill="#181818" points="259.04,461.9806,266.3887,455.4234,261.0972,457.4234,259.0971,452.1319,259.04,461.9806" style="stroke:#181818;stroke-width:1.0;"/></g><!--link BuyTrainController to Locomotive--><g id="link_BuyTrainController_Locomotive"><path codeLine="106" d="M430.36,189.7606 C419.87,195.7306 413,199.6406 413,199.6406 C413,199.6406 243,229.6406 243,229.6406 C243,229.6406 6,275.6406 6,275.6406 C6,275.6406 6,370.6406 6,370.6406 C6,370.6406 171,541.6406 171,541.6406 C171,541.6406 333.44,588.7406 482.88,632.0706 " fill="none" id="BuyTrainController-to-Locomotive" style="stroke:#181818;stroke-width:1.0;stroke-dasharray:7.0,7.0;"/><polygon fill="#181818" points="487.74,633.4806,480.2149,627.1266,482.9389,632.0845,477.9811,634.8084,487.74,633.4806" style="stroke:#181818;stroke-width:1.0;"/></g><!--link BuyTrainController to LocomotiveRepository--><g id="link_BuyTrainController_LocomotiveRepository"><path codeLine="107" d="M641.7,189.3106 C652.73,195.5306 660,199.6406 660,199.6406 C660,199.6406 782,229.6406 782,229.6406 C782,229.6406 844.8,256.6606 902.52,281.4906 " fill="none" id="BuyTrainController-to-LocomotiveRepository" style="stroke:#181818;stroke-width:1.0;stroke-dasharray:7.0,7.0;"/><polygon fill="#181818" points="907.38,283.5806,900.7105,276.3337,902.7917,281.5938,897.5316,283.675,907.38,283.5806" style="stroke:#181818;stroke-width:1.0;"/></g><!--link BuyTrainController to Scenario--><g id="link_BuyTrainController_Scenario"><path codeLine="108" d="M541.64,191.7106 C548.03,262.1706 558.35,375.8106 564.32,441.5806 " fill="none" id="BuyTrainController-to-Scenario" style="stroke:#181818;stroke-width:1.0;stroke-dasharray:7.0,7.0;"/><polygon fill="#181818" points="564.78,446.6206,567.9415,437.293,564.3235,441.6415,559.9749,438.0235,564.78,446.6206" style="stroke:#181818;stroke-width:1.0;"/></g><!--link BuyTrainController to ScenarioRepository--><g id="link_BuyTrainController_ScenarioRepository"><path codeLine="109" d="M504.32,191.8706 C488.35,223.2306 469.57,260.1206 456.08,286.6206 " fill="none" id="BuyTrainController-to-ScenarioRepository" style="stroke:#181818;stroke-width:1.0;stroke-dasharray:7.0,7.0;"/><polygon fill="#181818" points="453.79,291.1206,461.4246,284.8986,456.0489,286.66,454.2875,281.2843,453.79,291.1206" style="stroke:#181818;stroke-width:1.0;"/></g><!--link BuyTrainController to TrainRepository--><g id="link_BuyTrainController_TrainRepository"><path codeLine="110" d="M587.37,191.7206 C610.2,219.3006 632,245.6406 632,245.6406 C632,245.6406 653.99,262.4606 677.35,280.3306 " fill="none" id="BuyTrainController-to-TrainRepository" style="stroke:#181818;stroke-width:1.0;stroke-dasharray:7.0,7.0;"/><polygon fill="#181818" points="681.41,283.4406,676.6987,274.7917,677.441,280.3997,671.8331,281.1421,681.41,283.4406" style="stroke:#181818;stroke-width:1.0;"/></g><!--link BuyTrainController to PlayerRepository--><g id="link_BuyTrainController_PlayerRepository"><path codeLine="111" d="M641.7,189.3106 C652.73,195.5306 660,199.6406 660,199.6406 C660,199.6406 946,229.6406 946,229.6406 C946,229.6406 996,245.6406 996,245.6406 C996,245.6406 1135,275.6406 1135,275.6406 C1135,275.6406 1147.99,281.4506 1164.8,288.9606 " fill="none" id="BuyTrainController-to-PlayerRepository" style="stroke:#181818;stroke-width:1.0;stroke-dasharray:7.0,7.0;"/><polygon fill="#181818" points="1169.63,291.1206,1163.0536,283.7891,1165.0675,289.0753,1159.7812,291.0892,1169.63,291.1206" style="stroke:#181818;stroke-width:1.0;"/></g><!--link BuyTrainController to Repositories--><g id="link_BuyTrainController_Repositories"><path codeLine="112" d="M639.95,65.4606 C661.34,52.4606 677.5,42.6406 677.5,42.6406 C677.5,42.6406 851.5,42.6406 851.5,42.6406 C851.5,42.6406 864.07,50.9806 881.37,62.4706 " fill="none" id="BuyTrainController-to-Repositories" style="stroke:#181818;stroke-width:1.0;stroke-dasharray:7.0,7.0;"/><polygon fill="#181818" points="885.86,65.4606,880.5903,57.1401,881.6997,62.6871,876.1527,63.7965,885.86,65.4606" style="stroke:#181818;stroke-width:1.0;"/></g><!--link Repositories to Repositories--><g id="link_Repositories_Repositories"><path codeLine="114" d="M1076.23,109.0406 C1096.42,111.0306 1111,117.5706 1111,128.6406 C1111,138.7606 1098.82,145.0906 1081.31,147.6206 " fill="none" id="Repositories-to-Repositories" style="stroke:#181818;stroke-width:1.0;"/><polygon fill="#181818" points="1076.23,148.2406,1085.6454,151.1302,1081.1938,147.6398,1084.6841,143.1882,1076.23,148.2406" style="stroke:#181818;stroke-width:1.0;"/><text fill="#000000" font-family="sans-serif" font-size="13" lengthAdjust="spacing" textLength="49" x="1117" y="133.4092">instance</text><text fill="#000000" font-family="sans-serif" font-size="13" lengthAdjust="spacing" textLength="7" x="1084.0975" y="147.0403">1</text></g><!--link Repositories to ScenarioRepository--><g id="link_Repositories_ScenarioRepository"><path codeLine="115" d="M885.53,189.3106 C875.57,195.5306 869,199.6406 869,199.6406 C869,199.6406 713,229.6406 713,229.6406 C713,229.6406 601.84,267.0306 520.87,294.2706 " fill="none" id="Repositories-to-ScenarioRepository" style="stroke:#181818;stroke-width:1.0;"/><polygon fill="#181818" points="516.07,295.8806,525.8764,296.7939,520.8077,294.2824,523.3192,289.2136,516.07,295.8806" style="stroke:#181818;stroke-width:1.0;"/><text fill="#000000" font-family="sans-serif" font-size="13" lengthAdjust="spacing" textLength="111" x="714" y="242.4092">scenarioRepository</text><text fill="#000000" font-family="sans-serif" font-size="13" lengthAdjust="spacing" textLength="7" x="524.0995" y="290.3202">1</text></g><!--link Repositories to LocomotiveRepository--><g id="link_Repositories_LocomotiveRepository"><path codeLine="116" d="M986.82,199.6806 C989.01,225.9706 991.43,255.0706 993.36,278.3106 " fill="none" id="Repositories-to-LocomotiveRepository" style="stroke:#181818;stroke-width:1.0;"/><polygon fill="#181818" points="993.79,283.4806,997.031,274.1803,993.376,278.4978,989.0585,274.8428,993.79,283.4806" style="stroke:#181818;stroke-width:1.0;"/><text fill="#000000" font-family="sans-serif" font-size="13" lengthAdjust="spacing" textLength="123" x="991" y="242.4092">locomotiveRepository</text><text fill="#000000" font-family="sans-serif" font-size="13" lengthAdjust="spacing" textLength="7" x="985.5948" y="272.9594">1</text></g><!--link Repositories to TrainRepository--><g id="link_Repositories_TrainRepository"><path codeLine="117" d="M890.4,199.6806 C855.4,226.7406 816.53,256.7906 786.06,280.3506 " fill="none" id="Repositories-to-TrainRepository" style="stroke:#181818;stroke-width:1.0;"/><polygon fill="#181818" points="782,283.4806,791.5676,281.1437,785.9567,280.4238,786.6767,274.8129,782,283.4806" style="stroke:#181818;stroke-width:1.0;"/><text fill="#000000" font-family="sans-serif" font-size="13" lengthAdjust="spacing" textLength="87" x="850" y="242.4092">trainRepository</text><text fill="#000000" font-family="sans-serif" font-size="13" lengthAdjust="spacing" textLength="7" x="783.2828" y="272.9594">1</text></g><!--link Repositories to PlayerRepository--><g id="link_Repositories_PlayerRepository"><path codeLine="118" d="M1076.11,196.6206 C1101.98,214.8406 1123,229.6406 1123,229.6406 C1123,229.6406 1163.03,261.5606 1196.06,287.9006 " fill="none" id="Repositories-to-PlayerRepository" style="stroke:#181818;stroke-width:1.0;"/><polygon fill="#181818" points="1200.05,291.0806,1195.5131,282.3389,1196.1429,287.9606,1190.5212,288.5904,1200.05,291.0806" style="stroke:#181818;stroke-width:1.0;"/><text fill="#000000" font-family="sans-serif" font-size="13" lengthAdjust="spacing" textLength="97" x="1143" y="242.4092">playerRepository</text><text fill="#000000" font-family="sans-serif" font-size="13" lengthAdjust="spacing" textLength="7" x="1183.7641" y="280.4014">1</text></g><!--link ApplicationSession to ApplicationSession--><g id="link_ApplicationSession_ApplicationSession"><path codeLine="120" d="M174.66,307.5406 C194.5,308.4706 209.5,313.6706 209.5,323.1406 C209.5,331.8006 196.97,336.8906 179.66,338.4106 " fill="none" id="ApplicationSession-to-ApplicationSession" style="stroke:#181818;stroke-width:1.0;"/><polygon fill="#181818" points="174.66,338.7406,183.9132,342.1137,179.6482,338.3976,183.3644,334.1326,174.66,338.7406" style="stroke:#181818;stroke-width:1.0;"/><text fill="#000000" font-family="sans-serif" font-size="13" lengthAdjust="spacing" textLength="49" x="215.5" y="327.9092">instance</text><text fill="#000000" font-family="sans-serif" font-size="13" lengthAdjust="spacing" textLength="7" x="182.4523" y="337.3854">1</text></g><!--link ApplicationSession to UserSession--><g id="link_ApplicationSession_UserSession"><path codeLine="121" d="M139.28,370.7706 C163.16,398.4006 192.92,432.8506 214.78,458.1606 " fill="none" id="ApplicationSession-to-UserSession" style="stroke:#181818;stroke-width:1.0;stroke-dasharray:7.0,7.0;"/><polygon fill="#181818" points="218.21,462.1406,215.3519,452.7156,214.9408,458.3575,209.2989,457.9463,218.21,462.1406" style="stroke:#181818;stroke-width:1.0;"/></g><!--link LocomotiveRepository to Locomotive--><g id="link_LocomotiveRepository_Locomotive"><path codeLine="123" d="M943.53,362.9006 C894.02,398.7906 828,446.6406 828,446.6406 C828,446.6406 792.1,538.7206 763.32,612.5406 " fill="none" id="LocomotiveRepository-to-Locomotive" style="stroke:#181818;stroke-width:1.0;"/><polygon fill="#181818" points="761.44,617.3706,768.4341,610.4365,763.255,612.7117,760.9798,607.5325,761.44,617.3706" style="stroke:#181818;stroke-width:1.0;"/><text fill="#000000" font-family="sans-serif" font-size="13" lengthAdjust="spacing" textLength="68" x="829" y="498.9092">locomotives</text><text fill="#000000" font-family="sans-serif" font-size="13" lengthAdjust="spacing" textLength="5" x="759.1956" y="606.8055">*</text></g><!--link ScenarioRepository to Scenario--><g id="link_ScenarioRepository_Scenario"><path codeLine="125" d="M456.13,355.2006 C471.82,382.0706 492,416.6406 492,416.6406 C492,416.6406 503.86,428.4306 518.28,442.7506 " fill="none" id="ScenarioRepository-to-Scenario" style="stroke:#181818;stroke-width:1.0;"/><polygon fill="#181818" points="521.99,446.4406,518.4359,437.2554,518.4473,442.9122,512.7905,442.9237,521.99,446.4406" style="stroke:#181818;stroke-width:1.0;"/><text fill="#000000" font-family="sans-serif" font-size="13" lengthAdjust="spacing" textLength="49" x="493" y="413.4092">scenario</text><text fill="#000000" font-family="sans-serif" font-size="13" lengthAdjust="spacing" textLength="7" x="507.2557" y="435.8793">1</text></g><!--link Scenario to Locomotive--><g id="link_Scenario_Locomotive"><path codeLine="127" d="M604.68,541.8206 C620.78,562.8806 640.37,588.5006 659.14,613.0606 " fill="none" id="Scenario-to-Locomotive" style="stroke:#181818;stroke-width:1.0;"/><polygon fill="#181818" points="662.39,617.3206,660.0914,607.7437,659.349,613.3517,653.7411,612.6093,662.39,617.3206" style="stroke:#181818;stroke-width:1.0;"/><text fill="#000000" font-family="sans-serif" font-size="13" lengthAdjust="spacing" textLength="121" x="639" y="584.4092">availableLocomotives</text><text fill="#000000" font-family="sans-serif" font-size="13" lengthAdjust="spacing" textLength="5" x="651.324" y="606.7511">*</text></g><!--link Player to Train--><g id="link_Player_Train"><path codeLine="129" d="M1457.61,370.7706 C1437.86,393.0306 1414.18,419.7006 1393.98,442.4606 " fill="none" id="Player-to-Train" style="stroke:#181818;stroke-width:1.0;"/><polygon fill="#181818" points="1390.51,446.3706,1399.4712,442.2844,1393.8247,442.6273,1393.4818,436.9808,1390.51,446.3706" style="stroke:#181818;stroke-width:1.0;"/><text fill="#000000" font-family="sans-serif" font-size="13" lengthAdjust="spacing" textLength="32" x="1429" y="413.4092">trains</text><text fill="#000000" font-family="sans-serif" font-size="13" lengthAdjust="spacing" textLength="5" x="1391.4834" y="435.7986">*</text></g><!--link Train to Locomotive--><g id="link_Train_Locomotive"><path codeLine="130" d="M1264.93,523.3006 C1189.99,548.4006 1076.49,586.4206 973.12,621.0406 " fill="none" id="Train-to-Locomotive" style="stroke:#181818;stroke-width:1.0;"/><polygon fill="#181818" points="968.21,622.6806,978.0139,623.6205,972.952,621.0952,975.4772,616.0333,968.21,622.6806" style="stroke:#181818;stroke-width:1.0;"/><text fill="#000000" font-family="sans-serif" font-size="13" lengthAdjust="spacing" textLength="61" x="1113" y="584.4092">locomotive</text><text fill="#000000" font-family="sans-serif" font-size="13" lengthAdjust="spacing" textLength="7" x="976.2067" y="617.5531">1</text></g><!--SRC=[ZLPBJnin4BxxLrXS22L1xJMg8X5e9QHIeGOE71tl9B5mx9Nj1MqH_xrZUn_UZKFAWSYURrxVFBpdzaMeaXcsftkjDDyPlGVgJ0MabvIClx0jh5mjWHhWZgcjJ05snmhz9jIMRfYqgKGA1QukWPPQrlv0pZD2RPmcYHQNpDfhvunOLmxkk5OhyHVeLqBE9MmSTPeQiTqvMWWVZj2A42SSHdVZDUcjO5jlPqQNLKqPVJHC82IOfTTbAGLdNci5rk8FVISK_sOPqUGYY2xfktLupp_e5joTmeFYq0dnxgOo1fJhrJvQVqyMpD1HKF3NF_PCo1Jx85aDfej7CIp6dAwG2BLjxjPLWTfuM-XgZLM81WieAkuUZE3m4qku3A19wSyNY5rhBO6ftb5WfFCZ2iG8vPgZr5pljHEltlclxa0QNq5t8eff0anow1Kw-tjTW1mdKketJ3NropW72IRmFqnmXYKlLoL0CRx7IXZt36neAIH-OCAtsfo2glPjAdsian3ZD4Or7OGoxPnFUtVJw6CQh2RPhpWePeJ-j8Ri5UlECBBUl_LK2-k-zrUB1irZQzqo5rB2dnpPVw3KLZXjwhJBhZEU9hQ9CMdVNhoixpqJaO-BKSTad7036D5lU8jjaRP41B2Y2A977RjxKeOVPCxV7ZH_FeyeMzPnOi3_pv2Ursr7im6byzOf22n0Mx7qyh_dFrU8L7uOOYeTaPkAngoauUDs2vetMZcZfUnMnsL6b1hDjaKhNpUgIItlOpD4VZvhbmuHm_QxQB0IbSOcZhjRRp911WEFEqXtaB3KuZ1o1qKGRz0eTOZfnWXV4ki8g89w-usNjNOEWUWcLvicKjp21TreWyyQ3YYyjZCwCj-pb7WPrk3f3hd739FprIAN8SbKxGgXXu_FCMJoeXo395lx928XvGYsRTvJyjEMHer-33Pk-YnkCPXKGWR3F5lGiszdmm7tBqISt16s0MVMo9pQmznoZhABU9vqpWdzyNgTn_LuGkjWPSvfEQQEP3vu6lMC9E4e8nrt7ycc7VZyad8oO09BbM5wN8I4-XwVDvrxJWbflgLQZVZ5qz1gIJpE3getY9Jy0m00]--></g></svg>