<?xml version="1.0" encoding="us-ascii" standalone="no"?><svg xmlns="http://www.w3.org/2000/svg" xmlns:xlink="http://www.w3.org/1999/xlink" contentStyleType="text/css" height="1207px" preserveAspectRatio="none" style="width:1819px;height:1207px;background:#FFFFFF;" version="1.1" viewBox="0 0 1819 1207" width="1819px" zoomAndPan="magnify"><defs/><g><rect fill="#FFFFFF" height="1018.8438" style="stroke:#181818;stroke-width:1.0;" width="10" x="23" y="90.6406"/><rect fill="#FFFFFF" height="370.8047" style="stroke:#181818;stroke-width:1.0;" width="10" x="350" y="111.1641"/><rect fill="#FFFFFF" height="28.5234" style="stroke:#181818;stroke-width:1.0;" width="10" x="350" y="510.4922"/><rect fill="#FFFFFF" height="541.9453" style="stroke:#181818;stroke-width:1.0;" width="10" x="350" y="567.5391"/><rect fill="#FFFFFF" height="313.7578" style="stroke:#181818;stroke-width:1.0;" width="10" x="550" y="139.6875"/><rect fill="#FFFFFF" height="484.8984" style="stroke:#181818;stroke-width:1.0;" width="10" x="550" y="596.0625"/><rect fill="#FFFFFF" height="28.5234" style="stroke:#181818;stroke-width:1.0;" width="10" x="675" y="168.2109"/><rect fill="#FFFFFF" height="28.5234" style="stroke:#181818;stroke-width:1.0;" width="10" x="780" y="225.2578"/><rect fill="#FFFFFF" height="28.5234" style="stroke:#181818;stroke-width:1.0;" width="10" x="780" y="282.3047"/><rect fill="#FFFFFF" height="28.5234" style="stroke:#181818;stroke-width:1.0;" width="10" x="909.5" y="339.3516"/><rect fill="#FFFFFF" height="28.5234" style="stroke:#181818;stroke-width:1.0;" width="10" x="1069.5" y="396.3984"/><rect fill="#FFFFFF" height="85.5703" style="stroke:#181818;stroke-width:1.0;" width="10" x="1218" y="909.8203"/><rect fill="#FFFFFF" height="28.5234" style="stroke:#181818;stroke-width:1.0;" width="10" x="1218" y="1023.9141"/><rect fill="#FFFFFF" height="28.5234" style="stroke:#181818;stroke-width:1.0;" width="10" x="1350.5" y="795.7266"/><rect fill="#FFFFFF" height="28.5234" style="stroke:#181818;stroke-width:1.0;" width="10" x="1492" y="624.5859"/><rect fill="#FFFFFF" height="28.5234" style="stroke:#181818;stroke-width:1.0;" width="10" x="1492" y="681.6328"/><rect fill="#FFFFFF" height="28.5234" style="stroke:#181818;stroke-width:1.0;" width="10" x="1625" y="738.6797"/><rect fill="#FFFFFF" height="28.5234" style="stroke:#181818;stroke-width:1.0;" width="10" x="1718.5" y="852.7734"/><rect fill="#FFFFFF" height="28.5234" style="stroke:#181818;stroke-width:1.0;" width="10" x="1783" y="938.3438"/><line style="stroke:#181818;stroke-width:0.5;stroke-dasharray:5.0,5.0;" x1="28" x2="28" y1="80.6406" y2="1127.4844"/><line style="stroke:#181818;stroke-width:0.5;stroke-dasharray:5.0,5.0;" x1="354.5" x2="354.5" y1="80.6406" y2="1127.4844"/><line style="stroke:#181818;stroke-width:0.5;stroke-dasharray:5.0,5.0;" x1="554.5" x2="554.5" y1="80.6406" y2="1127.4844"/><line style="stroke:#181818;stroke-width:0.5;stroke-dasharray:5.0,5.0;" x1="679.5" x2="679.5" y1="80.6406" y2="1127.4844"/><line style="stroke:#181818;stroke-width:0.5;stroke-dasharray:5.0,5.0;" x1="784.5" x2="784.5" y1="80.6406" y2="1127.4844"/><line style="stroke:#181818;stroke-width:0.5;stroke-dasharray:5.0,5.0;" x1="914.5" x2="914.5" y1="80.6406" y2="1127.4844"/><line style="stroke:#181818;stroke-width:0.5;stroke-dasharray:5.0,5.0;" x1="1074.5" x2="1074.5" y1="80.6406" y2="1127.4844"/><line style="stroke:#181818;stroke-width:0.5;stroke-dasharray:5.0,5.0;" x1="1222.5" x2="1222.5" y1="80.6406" y2="1127.4844"/><line style="stroke:#181818;stroke-width:0.5;stroke-dasharray:5.0,5.0;" x1="1355.5" x2="1355.5" y1="80.6406" y2="1127.4844"/><line style="stroke:#181818;stroke-width:0.5;stroke-dasharray:5.0,5.0;" x1="1496.5" x2="1496.5" y1="80.6406" y2="1127.4844"/><line style="stroke:#181818;stroke-width:0.5;stroke-dasharray:5.0,5.0;" x1="1629.5" x2="1629.5" y1="80.6406" y2="1127.4844"/><line style="stroke:#181818;stroke-width:0.5;stroke-dasharray:5.0,5.0;" x1="1723.5" x2="1723.5" y1="80.6406" y2="1127.4844"/><line style="stroke:#181818;stroke-width:0.5;stroke-dasharray:5.0,5.0;" x1="1787.5" x2="1787.5" y1="80.6406" y2="1127.4844"/><text fill="#000000" font-family="sans-serif" font-size="14" lengthAdjust="spacing" textLength="40" x="5" y="77.6738">Player</text><ellipse cx="28" cy="13.5" fill="#E2E2F0" rx="8" ry="8" style="stroke:#181818;stroke-width:0.5;"/><path d="M28,21.5 L28,48.5 M15,29.5 L41,29.5 M28,48.5 L15,63.5 M28,48.5 L41,63.5 " fill="none" style="stroke:#181818;stroke-width:0.5;"/><text fill="#000000" font-family="sans-serif" font-size="14" lengthAdjust="spacing" textLength="40" x="5" y="1139.1582">Player</text><ellipse cx="28" cy="1150.625" fill="#E2E2F0" rx="8" ry="8" style="stroke:#181818;stroke-width:0.5;"/><path d="M28,1158.625 L28,1185.625 M15,1166.625 L41,1166.625 M28,1185.625 L15,1200.625 M28,1185.625 L41,1200.625 " fill="none" style="stroke:#181818;stroke-width:0.5;"/><rect fill="#E2E2F0" height="29.6406" rx="2.5" ry="2.5" style="stroke:#181818;stroke-width:0.5;" width="87" x="311.5" y="50"/><text fill="#000000" font-family="sans-serif" font-size="14" lengthAdjust="spacing" textLength="73" x="318.5" y="69.6738">:BuyTrainUI</text><rect fill="#E2E2F0" height="29.6406" rx="2.5" ry="2.5" style="stroke:#181818;stroke-width:0.5;" width="87" x="311.5" y="1126.4844"/><text fill="#000000" font-family="sans-serif" font-size="14" lengthAdjust="spacing" textLength="73" x="318.5" y="1146.1582">:BuyTrainUI</text><rect fill="#E2E2F0" height="29.6406" rx="2.5" ry="2.5" style="stroke:#181818;stroke-width:0.5;" width="137" x="486.5" y="50"/><text fill="#000000" font-family="sans-serif" font-size="14" lengthAdjust="spacing" textLength="123" x="493.5" y="69.6738">:BuyTrainController</text><rect fill="#E2E2F0" height="29.6406" rx="2.5" ry="2.5" style="stroke:#181818;stroke-width:0.5;" width="137" x="486.5" y="1126.4844"/><text fill="#000000" font-family="sans-serif" font-size="14" lengthAdjust="spacing" textLength="123" x="493.5" y="1146.1582">:BuyTrainController</text><rect fill="#E2E2F0" height="29.6406" rx="2.5" ry="2.5" style="stroke:#181818;stroke-width:0.5;" width="93" x="633.5" y="50"/><text fill="#000000" font-family="sans-serif" font-size="14" lengthAdjust="spacing" textLength="79" x="640.5" y="69.6738">Repositories</text><rect fill="#E2E2F0" height="29.6406" rx="2.5" ry="2.5" style="stroke:#181818;stroke-width:0.5;" width="93" x="633.5" y="1126.4844"/><text fill="#000000" font-family="sans-serif" font-size="14" lengthAdjust="spacing" textLength="79" x="640.5" y="1146.1582">Repositories</text><rect fill="#E2E2F0" height="45.2813" rx="2.5" ry="2.5" style="stroke:#181818;stroke-width:0.5;" width="97" x="736.5" y="34.3594"/><text fill="#000000" font-family="sans-serif" font-size="14" lengthAdjust="spacing" textLength="74" x="748" y="54.0332">repositories</text><text fill="#000000" font-family="sans-serif" font-size="14" lengthAdjust="spacing" textLength="83" x="743.5" y="69.6738">:Repositories</text><rect fill="#E2E2F0" height="45.2813" rx="2.5" ry="2.5" style="stroke:#181818;stroke-width:0.5;" width="97" x="736.5" y="1126.4844"/><text fill="#000000" font-family="sans-serif" font-size="14" lengthAdjust="spacing" textLength="74" x="748" y="1146.1582">repositories</text><text fill="#000000" font-family="sans-serif" font-size="14" lengthAdjust="spacing" textLength="83" x="743.5" y="1161.7988">:Repositories</text><rect fill="#E2E2F0" height="45.2813" rx="2.5" ry="2.5" style="stroke:#181818;stroke-width:0.5;" width="142" x="843.5" y="34.3594"/><text fill="#000000" font-family="sans-serif" font-size="14" lengthAdjust="spacing" textLength="122" x="853.5" y="54.0332">scenarioRepository</text><text fill="#000000" font-family="sans-serif" font-size="14" lengthAdjust="spacing" textLength="128" x="850.5" y="69.6738">:ScenarioRepository</text><rect fill="#E2E2F0" height="45.2813" rx="2.5" ry="2.5" style="stroke:#181818;stroke-width:0.5;" width="142" x="843.5" y="1126.4844"/><text fill="#000000" font-family="sans-serif" font-size="14" lengthAdjust="spacing" textLength="122" x="853.5" y="1146.1582">scenarioRepository</text><text fill="#000000" font-family="sans-serif" font-size="14" lengthAdjust="spacing" textLength="128" x="850.5" y="1161.7988">:ScenarioRepository</text><rect fill="#E2E2F0" height="45.2813" rx="2.5" ry="2.5" style="stroke:#181818;stroke-width:0.5;" width="158" x="995.5" y="34.3594"/><text fill="#000000" font-family="sans-serif" font-size="14" lengthAdjust="spacing" textLength="135" x="1007" y="54.0332">locomotiveRepository</text><text fill="#000000" font-family="sans-serif" font-size="14" lengthAdjust="spacing" textLength="144" x="1002.5" y="69.6738">:LocomotiveRepository</text><rect fill="#E2E2F0" height="45.2813" rx="2.5" ry="2.5" style="stroke:#181818;stroke-width:0.5;" width="158" x="995.5" y="1126.4844"/><text fill="#000000" font-family="sans-serif" font-size="14" lengthAdjust="spacing" textLength="135" x="1007" y="1146.1582">locomotiveRepository</text><text fill="#000000" font-family="sans-serif" font-size="14" lengthAdjust="spacing" textLength="144" x="1002.5" y="1161.7988">:LocomotiveRepository</text><rect fill="#E2E2F0" height="45.2813" rx="2.5" ry="2.5" style="stroke:#181818;stroke-width:0.5;" width="119" x="1163.5" y="34.3594"/><text fill="#000000" font-family="sans-serif" font-size="14" lengthAdjust="spacing" textLength="96" x="1175" y="54.0332">trainRepository</text><text fill="#000000" font-family="sans-serif" font-size="14" lengthAdjust="spacing" textLength="105" x="1170.5" y="69.6738">:TrainRepository</text><rect fill="#E2E2F0" height="45.2813" rx="2.5" ry="2.5" style="stroke:#181818;stroke-width:0.5;" width="119" x="1163.5" y="1126.4844"/><text fill="#000000" font-family="sans-serif" font-size="14" lengthAdjust="spacing" textLength="96" x="1175" y="1146.1582">trainRepository</text><text fill="#000000" font-family="sans-serif" font-size="14" lengthAdjust="spacing" textLength="105" x="1170.5" y="1161.7988">:TrainRepository</text><rect fill="#E2E2F0" height="45.2813" rx="2.5" ry="2.5" style="stroke:#181818;stroke-width:0.5;" width="126" x="1292.5" y="34.3594"/><text fill="#000000" font-family="sans-serif" font-size="14" lengthAdjust="spacing" textLength="107" x="1302" y="54.0332">playerRepository</text><text fill="#000000" font-family="sans-serif" font-size="14" lengthAdjust="spacing" textLength="112" x="1299.5" y="69.6738">:PlayerRepository</text><rect fill="#E2E2F0" height="45.2813" rx="2.5" ry="2.5" style="stroke:#181818;stroke-width:0.5;" width="126" x="1292.5" y="1126.4844"/><text fill="#000000" font-family="sans-serif" font-size="14" lengthAdjust="spacing" textLength="107" x="1302" y="1146.1582">playerRepository</text><text fill="#000000" font-family="sans-serif" font-size="14" lengthAdjust="spacing" textLength="112" x="1299.5" y="1161.7988">:PlayerRepository</text><rect fill="#E2E2F0" height="45.2813" rx="2.5" ry="2.5" style="stroke:#181818;stroke-width:0.5;" width="137" x="1428.5" y="34.3594"/><text fill="#000000" font-family="sans-serif" font-size="14" lengthAdjust="spacing" textLength="74" x="1460" y="54.0332">appSession</text><text fill="#000000" font-family="sans-serif" font-size="14" lengthAdjust="spacing" textLength="123" x="1435.5" y="69.6738">:ApplicationSession</text><rect fill="#E2E2F0" height="45.2813" rx="2.5" ry="2.5" style="stroke:#181818;stroke-width:0.5;" width="137" x="1428.5" y="1126.4844"/><text fill="#000000" font-family="sans-serif" font-size="14" lengthAdjust="spacing" textLength="74" x="1460" y="1146.1582">appSession</text><text fill="#000000" font-family="sans-serif" font-size="14" lengthAdjust="spacing" textLength="123" x="1435.5" y="1161.7988">:ApplicationSession</text><rect fill="#E2E2F0" height="45.2813" rx="2.5" ry="2.5" style="stroke:#181818;stroke-width:0.5;" width="109" x="1575.5" y="34.3594"/><text fill="#000000" font-family="sans-serif" font-size="14" lengthAdjust="spacing" textLength="95" x="1582.5" y="54.0332">currentSession</text><text fill="#000000" font-family="sans-serif" font-size="14" lengthAdjust="spacing" textLength="83" x="1588.5" y="69.6738">:UserSession</text><rect fill="#E2E2F0" height="45.2813" rx="2.5" ry="2.5" style="stroke:#181818;stroke-width:0.5;" width="109" x="1575.5" y="1126.4844"/><text fill="#000000" font-family="sans-serif" font-size="14" lengthAdjust="spacing" textLength="95" x="1582.5" y="1146.1582">currentSession</text><text fill="#000000" font-family="sans-serif" font-size="14" lengthAdjust="spacing" textLength="83" x="1588.5" y="1161.7988">:UserSession</text><rect fill="#E2E2F0" height="45.2813" rx="2.5" ry="2.5" style="stroke:#181818;stroke-width:0.5;" width="58" x="1694.5" y="34.3594"/><text fill="#000000" font-family="sans-serif" font-size="14" lengthAdjust="spacing" textLength="39" x="1704" y="54.0332">player</text><text fill="#000000" font-family="sans-serif" font-size="14" lengthAdjust="spacing" textLength="44" x="1701.5" y="69.6738">:Player</text><rect fill="#E2E2F0" height="45.2813" rx="2.5" ry="2.5" style="stroke:#181818;stroke-width:0.5;" width="58" x="1694.5" y="1126.4844"/><text fill="#000000" font-family="sans-serif" font-size="14" lengthAdjust="spacing" textLength="39" x="1704" y="1146.1582">player</text><text fill="#000000" font-family="sans-serif" font-size="14" lengthAdjust="spacing" textLength="44" x="1701.5" y="1161.7988">:Player</text><rect fill="#E2E2F0" height="45.2813" rx="2.5" ry="2.5" style="stroke:#181818;stroke-width:0.5;" width="51" x="1762.5" y="34.3594"/><text fill="#000000" font-family="sans-serif" font-size="14" lengthAdjust="spacing" textLength="28" x="1774" y="54.0332">train</text><text fill="#000000" font-family="sans-serif" font-size="14" lengthAdjust="spacing" textLength="37" x="1769.5" y="69.6738">:Train</text><rect fill="#E2E2F0" height="45.2813" rx="2.5" ry="2.5" style="stroke:#181818;stroke-width:0.5;" width="51" x="1762.5" y="1126.4844"/><text fill="#000000" font-family="sans-serif" font-size="14" lengthAdjust="spacing" textLength="28" x="1774" y="1146.1582">train</text><text fill="#000000" font-family="sans-serif" font-size="14" lengthAdjust="spacing" textLength="37" x="1769.5" y="1161.7988">:Train</text><rect fill="#FFFFFF" height="1018.8438" style="stroke:#181818;stroke-width:1.0;" width="10" x="23" y="90.6406"/><rect fill="#FFFFFF" height="370.8047" style="stroke:#181818;stroke-width:1.0;" width="10" x="350" y="111.1641"/><rect fill="#FFFFFF" height="28.5234" style="stroke:#181818;stroke-width:1.0;" width="10" x="350" y="510.4922"/><rect fill="#FFFFFF" height="541.9453" style="stroke:#181818;stroke-width:1.0;" width="10" x="350" y="567.5391"/><rect fill="#FFFFFF" height="313.7578" style="stroke:#181818;stroke-width:1.0;" width="10" x="550" y="139.6875"/><rect fill="#FFFFFF" height="484.8984" style="stroke:#181818;stroke-width:1.0;" width="10" x="550" y="596.0625"/><rect fill="#FFFFFF" height="28.5234" style="stroke:#181818;stroke-width:1.0;" width="10" x="675" y="168.2109"/><rect fill="#FFFFFF" height="28.5234" style="stroke:#181818;stroke-width:1.0;" width="10" x="780" y="225.2578"/><rect fill="#FFFFFF" height="28.5234" style="stroke:#181818;stroke-width:1.0;" width="10" x="780" y="282.3047"/><rect fill="#FFFFFF" height="28.5234" style="stroke:#181818;stroke-width:1.0;" width="10" x="909.5" y="339.3516"/><rect fill="#FFFFFF" height="28.5234" style="stroke:#181818;stroke-width:1.0;" width="10" x="1069.5" y="396.3984"/><rect fill="#FFFFFF" height="85.5703" style="stroke:#181818;stroke-width:1.0;" width="10" x="1218" y="909.8203"/><rect fill="#FFFFFF" height="28.5234" style="stroke:#181818;stroke-width:1.0;" width="10" x="1218" y="1023.9141"/><rect fill="#FFFFFF" height="28.5234" style="stroke:#181818;stroke-width:1.0;" width="10" x="1350.5" y="795.7266"/><rect fill="#FFFFFF" height="28.5234" style="stroke:#181818;stroke-width:1.0;" width="10" x="1492" y="624.5859"/><rect fill="#FFFFFF" height="28.5234" style="stroke:#181818;stroke-width:1.0;" width="10" x="1492" y="681.6328"/><rect fill="#FFFFFF" height="28.5234" style="stroke:#181818;stroke-width:1.0;" width="10" x="1625" y="738.6797"/><rect fill="#FFFFFF" height="28.5234" style="stroke:#181818;stroke-width:1.0;" width="10" x="1718.5" y="852.7734"/><rect fill="#FFFFFF" height="28.5234" style="stroke:#181818;stroke-width:1.0;" width="10" x="1783" y="938.3438"/><polygon fill="#181818" points="338,107.1641,348,111.1641,338,115.1641,342,111.1641" style="stroke:#181818;stroke-width:1.0;"/><line style="stroke:#181818;stroke-width:1.0;" x1="33" x2="344" y1="111.1641" y2="111.1641"/><text fill="#000000" font-family="sans-serif" font-size="13" lengthAdjust="spacing" textLength="108" x="40" y="106.4092">asks to buy a train</text><polygon fill="#181818" points="538,135.6875,548,139.6875,538,143.6875,542,139.6875" style="stroke:#181818;stroke-width:1.0;"/><line style="stroke:#181818;stroke-width:1.0;stroke-dasharray:2.0,2.0;" x1="360" x2="544" y1="139.6875" y2="139.6875"/><text fill="#000000" font-family="sans-serif" font-size="13" lengthAdjust="spacing" textLength="57" x="367" y="134.9326">buyTrain()</text><polygon fill="#181818" points="663,164.2109,673,168.2109,663,172.2109,667,168.2109" style="stroke:#181818;stroke-width:1.0;"/><line style="stroke:#181818;stroke-width:1.0;" x1="560" x2="669" y1="168.2109" y2="168.2109"/><text fill="#000000" font-family="sans-serif" font-size="13" lengthAdjust="spacing" textLength="75" x="567" y="163.4561">getInstance()</text><polygon fill="#181818" points="571,192.7344,561,196.7344,571,200.7344,567,196.7344" style="stroke:#181818;stroke-width:1.0;"/><line style="stroke:#181818;stroke-width:1.0;stroke-dasharray:2.0,2.0;" x1="565" x2="679" y1="196.7344" y2="196.7344"/><text fill="#000000" font-family="sans-serif" font-size="13" lengthAdjust="spacing" textLength="67" x="577" y="191.9795">repositories</text><polygon fill="#181818" points="768,221.2578,778,225.2578,768,229.2578,772,225.2578" style="stroke:#181818;stroke-width:1.0;"/><line style="stroke:#181818;stroke-width:1.0;" x1="560" x2="774" y1="225.2578" y2="225.2578"/><text fill="#000000" font-family="sans-serif" font-size="13" lengthAdjust="spacing" textLength="139" x="567" y="220.5029">getScenarioRepository()</text><polygon fill="#181818" points="571,249.7813,561,253.7813,571,257.7813,567,253.7813" style="stroke:#181818;stroke-width:1.0;"/><line style="stroke:#181818;stroke-width:1.0;stroke-dasharray:2.0,2.0;" x1="565" x2="784" y1="253.7813" y2="253.7813"/><text fill="#000000" font-family="sans-serif" font-size="13" lengthAdjust="spacing" textLength="111" x="577" y="249.0264">scenarioRepository</text><polygon fill="#181818" points="768,278.3047,778,282.3047,768,286.3047,772,282.3047" style="stroke:#181818;stroke-width:1.0;"/><line style="stroke:#181818;stroke-width:1.0;" x1="560" x2="774" y1="282.3047" y2="282.3047"/><text fill="#000000" font-family="sans-serif" font-size="13" lengthAdjust="spacing" textLength="153" x="567" y="277.5498">getLocomotiveRepository()</text><polygon fill="#181818" points="571,306.8281,561,310.8281,571,314.8281,567,310.8281" style="stroke:#181818;stroke-width:1.0;"/><line style="stroke:#181818;stroke-width:1.0;stroke-dasharray:2.0,2.0;" x1="565" x2="784" y1="310.8281" y2="310.8281"/><text fill="#000000" font-family="sans-serif" font-size="13" lengthAdjust="spacing" textLength="123" x="577" y="306.0732">locomotiveRepository</text><polygon fill="#181818" points="897.5,335.3516,907.5,339.3516,897.5,343.3516,901.5,339.3516" style="stroke:#181818;stroke-width:1.0;"/><line style="stroke:#181818;stroke-width:1.0;" x1="560" x2="903.5" y1="339.3516" y2="339.3516"/><text fill="#000000" font-family="sans-serif" font-size="13" lengthAdjust="spacing" textLength="144" x="567" y="334.5967">getCurrentScenario() ???</text><polygon fill="#181818" points="571,363.875,561,367.875,571,371.875,567,367.875" style="stroke:#181818;stroke-width:1.0;"/><line style="stroke:#181818;stroke-width:1.0;" x1="565" x2="913.5" y1="367.875" y2="367.875"/><text fill="#000000" font-family="sans-serif" font-size="13" lengthAdjust="spacing" textLength="49" x="577" y="363.1201">scenario</text><polygon fill="#181818" points="1057.5,392.3984,1067.5,396.3984,1057.5,400.3984,1061.5,396.3984" style="stroke:#181818;stroke-width:1.0;"/><line style="stroke:#181818;stroke-width:1.0;" x1="560" x2="1063.5" y1="396.3984" y2="396.3984"/><text fill="#000000" font-family="sans-serif" font-size="13" lengthAdjust="spacing" textLength="325" x="567" y="391.6436">locomotiveRepository.getAvailableLocomotives(scenario)</text><polygon fill="#181818" points="571,420.9219,561,424.9219,571,428.9219,567,424.9219" style="stroke:#181818;stroke-width:1.0;"/><line style="stroke:#181818;stroke-width:1.0;stroke-dasharray:2.0,2.0;" x1="565" x2="1073.5" y1="424.9219" y2="424.9219"/><text fill="#000000" font-family="sans-serif" font-size="13" lengthAdjust="spacing" textLength="102" x="577" y="420.167">List&lt;Locomotive&gt;</text><polygon fill="#181818" points="371,449.4453,361,453.4453,371,457.4453,367,453.4453" style="stroke:#181818;stroke-width:1.0;"/><line style="stroke:#181818;stroke-width:1.0;stroke-dasharray:2.0,2.0;" x1="365" x2="554" y1="453.4453" y2="453.4453"/><text fill="#000000" font-family="sans-serif" font-size="13" lengthAdjust="spacing" textLength="166" x="377" y="448.6904">display available locomotives</text><polygon fill="#181818" points="44,477.9688,34,481.9688,44,485.9688,40,481.9688" style="stroke:#181818;stroke-width:1.0;"/><line style="stroke:#181818;stroke-width:1.0;stroke-dasharray:2.0,2.0;" x1="38" x2="354" y1="481.9688" y2="481.9688"/><text fill="#000000" font-family="sans-serif" font-size="13" lengthAdjust="spacing" textLength="293" x="50" y="477.2139">shows available locomotives and asks for selection</text><polygon fill="#181818" points="338,506.4922,348,510.4922,338,514.4922,342,510.4922" style="stroke:#181818;stroke-width:1.0;"/><line style="stroke:#181818;stroke-width:1.0;" x1="33" x2="344" y1="510.4922" y2="510.4922"/><text fill="#000000" font-family="sans-serif" font-size="13" lengthAdjust="spacing" textLength="118" x="40" y="505.7373">selects a locomotive</text><polygon fill="#181818" points="44,535.0156,34,539.0156,44,543.0156,40,539.0156" style="stroke:#181818;stroke-width:1.0;"/><line style="stroke:#181818;stroke-width:1.0;stroke-dasharray:2.0,2.0;" x1="38" x2="354" y1="539.0156" y2="539.0156"/><text fill="#000000" font-family="sans-serif" font-size="13" lengthAdjust="spacing" textLength="124" x="50" y="534.2607">requests confirmation</text><polygon fill="#181818" points="338,563.5391,348,567.5391,338,571.5391,342,567.5391" style="stroke:#181818;stroke-width:1.0;"/><line style="stroke:#181818;stroke-width:1.0;" x1="33" x2="344" y1="567.5391" y2="567.5391"/><text fill="#000000" font-family="sans-serif" font-size="13" lengthAdjust="spacing" textLength="105" x="40" y="562.7842">confirms selection</text><polygon fill="#181818" points="538,592.0625,548,596.0625,538,600.0625,542,596.0625" style="stroke:#181818;stroke-width:1.0;"/><line style="stroke:#181818;stroke-width:1.0;stroke-dasharray:2.0,2.0;" x1="360" x2="544" y1="596.0625" y2="596.0625"/><text fill="#000000" font-family="sans-serif" font-size="13" lengthAdjust="spacing" textLength="149" x="367" y="591.3076">trainPurchase(locomotive)</text><polygon fill="#181818" points="1480,620.5859,1490,624.5859,1480,628.5859,1484,624.5859" style="stroke:#181818;stroke-width:1.0;"/><line style="stroke:#181818;stroke-width:1.0;" x1="560" x2="1486" y1="624.5859" y2="624.5859"/><text fill="#000000" font-family="sans-serif" font-size="13" lengthAdjust="spacing" textLength="75" x="567" y="619.8311">getInstance()</text><polygon fill="#181818" points="571,649.1094,561,653.1094,571,657.1094,567,653.1094" style="stroke:#181818;stroke-width:1.0;"/><line style="stroke:#181818;stroke-width:1.0;stroke-dasharray:2.0,2.0;" x1="565" x2="1496" y1="653.1094" y2="653.1094"/><text fill="#000000" font-family="sans-serif" font-size="13" lengthAdjust="spacing" textLength="68" x="577" y="648.3545">appSession</text><polygon fill="#181818" points="1480,677.6328,1490,681.6328,1480,685.6328,1484,681.6328" style="stroke:#181818;stroke-width:1.0;"/><line style="stroke:#181818;stroke-width:1.0;" x1="560" x2="1486" y1="681.6328" y2="681.6328"/><text fill="#000000" font-family="sans-serif" font-size="13" lengthAdjust="spacing" textLength="187" x="567" y="676.8779">appSession.getCurrentSession()</text><polygon fill="#181818" points="571,706.1563,561,710.1563,571,714.1563,567,710.1563" style="stroke:#181818;stroke-width:1.0;"/><line style="stroke:#181818;stroke-width:1.0;stroke-dasharray:2.0,2.0;" x1="565" x2="1496" y1="710.1563" y2="710.1563"/><text fill="#000000" font-family="sans-serif" font-size="13" lengthAdjust="spacing" textLength="87" x="577" y="705.4014">currentSession</text><polygon fill="#181818" points="1613,734.6797,1623,738.6797,1613,742.6797,1617,738.6797" style="stroke:#181818;stroke-width:1.0;"/><line style="stroke:#181818;stroke-width:1.0;" x1="560" x2="1619" y1="738.6797" y2="738.6797"/><text fill="#000000" font-family="sans-serif" font-size="13" lengthAdjust="spacing" textLength="177" x="567" y="733.9248">currentSession.getUserEmail()</text><polygon fill="#181818" points="571,763.2031,561,767.2031,571,771.2031,567,767.2031" style="stroke:#181818;stroke-width:1.0;"/><line style="stroke:#181818;stroke-width:1.0;stroke-dasharray:2.0,2.0;" x1="565" x2="1629" y1="767.2031" y2="767.2031"/><text fill="#000000" font-family="sans-serif" font-size="13" lengthAdjust="spacing" textLength="31" x="577" y="762.4482">email</text><polygon fill="#181818" points="1338.5,791.7266,1348.5,795.7266,1338.5,799.7266,1342.5,795.7266" style="stroke:#181818;stroke-width:1.0;"/><line style="stroke:#181818;stroke-width:1.0;" x1="560" x2="1344.5" y1="795.7266" y2="795.7266"/><text fill="#000000" font-family="sans-serif" font-size="13" lengthAdjust="spacing" textLength="143" x="567" y="790.9717">getPlayerByEmail(email)</text><polygon fill="#181818" points="571,820.25,561,824.25,571,828.25,567,824.25" style="stroke:#181818;stroke-width:1.0;"/><line style="stroke:#181818;stroke-width:1.0;stroke-dasharray:2.0,2.0;" x1="565" x2="1354.5" y1="824.25" y2="824.25"/><text fill="#000000" font-family="sans-serif" font-size="13" lengthAdjust="spacing" textLength="35" x="577" y="819.4951">player</text><polygon fill="#181818" points="1706.5,848.7734,1716.5,852.7734,1706.5,856.7734,1710.5,852.7734" style="stroke:#181818;stroke-width:1.0;"/><line style="stroke:#181818;stroke-width:1.0;" x1="560" x2="1712.5" y1="852.7734" y2="852.7734"/><text fill="#000000" font-family="sans-serif" font-size="13" lengthAdjust="spacing" textLength="308" x="567" y="848.0186">player.deductPriceFromBudget(locomotive.getPrice())</text><polygon fill="#181818" points="571,877.2969,561,881.2969,571,885.2969,567,881.2969" style="stroke:#181818;stroke-width:1.0;"/><line style="stroke:#181818;stroke-width:1.0;stroke-dasharray:2.0,2.0;" x1="565" x2="1722.5" y1="881.2969" y2="881.2969"/><text fill="#000000" font-family="sans-serif" font-size="13" lengthAdjust="spacing" textLength="22" x="577" y="876.542">true</text><polygon fill="#181818" points="1206,905.8203,1216,909.8203,1206,913.8203,1210,909.8203" style="stroke:#181818;stroke-width:1.0;"/><line style="stroke:#181818;stroke-width:1.0;" x1="560" x2="1212" y1="909.8203" y2="909.8203"/><text fill="#000000" font-family="sans-serif" font-size="13" lengthAdjust="spacing" textLength="158" x="567" y="905.0654">createNewTrain(locomotive)</text><polygon fill="#181818" points="1771,934.3438,1781,938.3438,1771,942.3438,1775,938.3438" style="stroke:#181818;stroke-width:1.0;"/><line style="stroke:#181818;stroke-width:1.0;" x1="1228" x2="1777" y1="938.3438" y2="938.3438"/><text fill="#000000" font-family="sans-serif" font-size="13" lengthAdjust="spacing" textLength="115" x="1235" y="933.5889">Train(id, locomotive)</text><polygon fill="#181818" points="1239,962.8672,1229,966.8672,1239,970.8672,1235,966.8672" style="stroke:#181818;stroke-width:1.0;"/><line style="stroke:#181818;stroke-width:1.0;stroke-dasharray:2.0,2.0;" x1="1233" x2="1787" y1="966.8672" y2="966.8672"/><text fill="#000000" font-family="sans-serif" font-size="13" lengthAdjust="spacing" textLength="25" x="1245" y="962.1123">train</text><polygon fill="#181818" points="571,991.3906,561,995.3906,571,999.3906,567,995.3906" style="stroke:#181818;stroke-width:1.0;"/><line style="stroke:#181818;stroke-width:1.0;stroke-dasharray:2.0,2.0;" x1="565" x2="1222" y1="995.3906" y2="995.3906"/><text fill="#000000" font-family="sans-serif" font-size="13" lengthAdjust="spacing" textLength="25" x="577" y="990.6357">train</text><polygon fill="#181818" points="1206,1019.9141,1216,1023.9141,1206,1027.9141,1210,1023.9141" style="stroke:#181818;stroke-width:1.0;"/><line style="stroke:#181818;stroke-width:1.0;" x1="560" x2="1212" y1="1023.9141" y2="1023.9141"/><text fill="#000000" font-family="sans-serif" font-size="13" lengthAdjust="spacing" textLength="176" x="567" y="1019.1592">addTrainToPlayer(player, train)</text><polygon fill="#181818" points="571,1048.4375,561,1052.4375,571,1056.4375,567,1052.4375" style="stroke:#181818;stroke-width:1.0;"/><line style="stroke:#181818;stroke-width:1.0;stroke-dasharray:2.0,2.0;" x1="565" x2="1222" y1="1052.4375" y2="1052.4375"/><text fill="#000000" font-family="sans-serif" font-size="13" lengthAdjust="spacing" textLength="22" x="577" y="1047.6826">true</text><polygon fill="#181818" points="371,1076.9609,361,1080.9609,371,1084.9609,367,1080.9609" style="stroke:#181818;stroke-width:1.0;"/><line style="stroke:#181818;stroke-width:1.0;stroke-dasharray:2.0,2.0;" x1="365" x2="554" y1="1080.9609" y2="1080.9609"/><text fill="#000000" font-family="sans-serif" font-size="13" lengthAdjust="spacing" textLength="106" x="377" y="1076.2061">success message</text><polygon fill="#181818" points="39,1105.4844,29,1109.4844,39,1113.4844,35,1109.4844" style="stroke:#181818;stroke-width:1.0;"/><line style="stroke:#181818;stroke-width:1.0;stroke-dasharray:2.0,2.0;" x1="33" x2="354" y1="1109.4844" y2="1109.4844"/><text fill="#000000" font-family="sans-serif" font-size="13" lengthAdjust="spacing" textLength="151" x="45" y="1104.7295">display operation success</text><!--SRC=[jLTTQzim57tthn1zIg7j3mYZ9GdUC8J4sCx3O51KMMt57CkJx9Ry-ycIFoHPbZFe_128etlEFTAzHpSGrPI1cxY05ynk0EGWtcz-XabGGLOJH2fOrk1clMqk6OEaF4LopIcQ-Nr7ovhHekYmjjdEN9ZWYd8YA0dcSaKIniVKNCEqDR_AjJlaEOqEF_PXTZoOmHpX4Z92XwYBW4WdBoLGkWiFcoGwFhU89an14JtJcdnW0sZlU2sXziUT0wLkjyG0oCmtCZPBDj714Lt9Cp72O-kLTc0E05XLAUQSq5A4Rggg80ZMubltKWPlulWv3TCqiZSIDOpXiXu1JXmpFN9tIfBmaBcZLUv3ndgU8YRAVZesgj-USLE202AnsR36VLK6e7lKTt3_A6eHh4N4Rmvg2bwQ2u10mWrB1mnHjK1xHE2zY1SrAW1UkW9UtHfhXjYsae7rj942GDQZW7Z3TLJo6fO8MoW6agfuu7WKK9VJ6kXzC5cVOmlGcztOBIhFQKCuClOhq1eGNF7OQGmgfmsxY6ThrrBvfrrmTVFYoItedjNfSfJW2vGP9gPqxRhMxNPsTGkUdfxcPPaswDnnasHeclxiV3fCz3aLlNy2zqOz25MR3qWA-5BWyTZugi_0Ssg3DRk43RoZ4-m9hx-D78y-SGEsMrVlJZdXhI42s4lGH9gjhM6tZkFogyxvnEw_qq_knWImp9KdlehRdUC2ezRu0mUDCCN0OQWgHW1fiC6SczgPCVodmLn48rg-4dQ60_aoSHV2hQmzjEhOfEV73KFlaEFLcFHG6JuhxwfGkmoNxDm6rUzHZtLfoqPh6E_fODdnTAAvvIuv8yc3PX7gpN_MPuuINwlHca9iibPhExY4Pz4bLyYqXngFL6lfA1UtN5UejBaMb6fZdYnEDLbjBqgQ95tMfy-A7ctQib6Nckck4EOXCRMeKH3qq0yvpXjKnumW_9tHyxR9XKwjbzlJbB-kRYTIRVPkp7GBwuXrzsXmiAYemvmHDSxnhOqnB08F-5DDbGu_cZqZxV-0vuWqjfvRq2esaj-1AnYdh4kZbwAvjyMQy_PoWLpFPL_ENYQRmNqrkquBvhdSkOoghbgfWhnJVFErvZ-g6GNUIfjBt9WdU8EGy3Tm5X_m3GTBquDzF_Vp2AqmatTpZ-YweoTjy1S0]--></g></svg>