<?xml version="1.0" encoding="us-ascii" standalone="no"?><svg xmlns="http://www.w3.org/2000/svg" xmlns:xlink="http://www.w3.org/1999/xlink" contentStyleType="text/css" height="351px" preserveAspectRatio="none" style="width:552px;height:351px;background:#FFFFFF;" version="1.1" viewBox="0 0 552 351" width="552px" zoomAndPan="magnify"><defs/><g><rect fill="#FFFFFF" height="172.1406" style="stroke:#181818;stroke-width:1.0;" width="10" x="23" y="90.6406"/><rect fill="#FFFFFF" height="28.5234" style="stroke:#181818;stroke-width:1.0;" width="10" x="509" y="111.1641"/><rect fill="#FFFFFF" height="28.5234" style="stroke:#181818;stroke-width:1.0;" width="10" x="509" y="168.2109"/><rect fill="#FFFFFF" height="28.5234" style="stroke:#181818;stroke-width:1.0;" width="10" x="509" y="225.2578"/><line style="stroke:#181818;stroke-width:0.5;stroke-dasharray:5.0,5.0;" x1="28" x2="28" y1="80.6406" y2="271.7813"/><line style="stroke:#181818;stroke-width:0.5;stroke-dasharray:5.0,5.0;" x1="514" x2="514" y1="80.6406" y2="271.7813"/><text fill="#000000" font-family="sans-serif" font-size="14" lengthAdjust="spacing" textLength="40" x="5" y="77.6738">Player</text><ellipse cx="28" cy="13.5" fill="#E3E3E3" rx="8" ry="8" style="stroke:#181818;stroke-width:0.5;"/><path d="M28,21.5 L28,48.5 M15,29.5 L41,29.5 M28,48.5 L15,63.5 M28,48.5 L41,63.5 " fill="none" style="stroke:#181818;stroke-width:0.5;"/><text fill="#000000" font-family="sans-serif" font-size="14" lengthAdjust="spacing" textLength="40" x="5" y="283.4551">Player</text><ellipse cx="28" cy="294.9219" fill="#E3E3E3" rx="8" ry="8" style="stroke:#181818;stroke-width:0.5;"/><path d="M28,302.9219 L28,329.9219 M15,310.9219 L41,310.9219 M28,329.9219 L15,344.9219 M28,329.9219 L41,344.9219 " fill="none" style="stroke:#181818;stroke-width:0.5;"/><rect fill="#E3E3E3" height="29.6406" rx="2.5" ry="2.5" style="stroke:#181818;stroke-width:0.5;" width="64" x="482" y="50"/><text fill="#000000" font-family="sans-serif" font-size="14" lengthAdjust="spacing" textLength="50" x="489" y="69.6738">:System</text><rect fill="#E3E3E3" height="29.6406" rx="2.5" ry="2.5" style="stroke:#181818;stroke-width:0.5;" width="64" x="482" y="270.7813"/><text fill="#000000" font-family="sans-serif" font-size="14" lengthAdjust="spacing" textLength="50" x="489" y="290.4551">:System</text><rect fill="#FFFFFF" height="172.1406" style="stroke:#181818;stroke-width:1.0;" width="10" x="23" y="90.6406"/><rect fill="#FFFFFF" height="28.5234" style="stroke:#181818;stroke-width:1.0;" width="10" x="509" y="111.1641"/><rect fill="#FFFFFF" height="28.5234" style="stroke:#181818;stroke-width:1.0;" width="10" x="509" y="168.2109"/><rect fill="#FFFFFF" height="28.5234" style="stroke:#181818;stroke-width:1.0;" width="10" x="509" y="225.2578"/><polygon fill="#181818" points="497,107.1641,507,111.1641,497,115.1641,501,111.1641" style="stroke:#181818;stroke-width:1.0;"/><line style="stroke:#181818;stroke-width:1.0;" x1="33" x2="503" y1="111.1641" y2="111.1641"/><text fill="#000000" font-family="sans-serif" font-size="13" font-weight="bold" lengthAdjust="spacing" textLength="7" x="40" y="106.4092">1</text><text fill="#000000" font-family="sans-serif" font-size="13" lengthAdjust="spacing" textLength="387" x="51" y="106.4092">Requests list of available locomotives for sale and respective prices</text><polygon fill="#181818" points="44,135.6875,34,139.6875,44,143.6875,40,139.6875" style="stroke:#181818;stroke-width:1.0;"/><line style="stroke:#181818;stroke-width:1.0;stroke-dasharray:2.0,2.0;" x1="38" x2="513" y1="139.6875" y2="139.6875"/><text fill="#000000" font-family="sans-serif" font-size="13" font-weight="bold" lengthAdjust="spacing" textLength="7" x="50" y="134.9326">2</text><text fill="#000000" font-family="sans-serif" font-size="13" lengthAdjust="spacing" textLength="208" x="61" y="134.9326">shows available locomotives for sale</text><polygon fill="#181818" points="497,164.2109,507,168.2109,497,172.2109,501,168.2109" style="stroke:#181818;stroke-width:1.0;"/><line style="stroke:#181818;stroke-width:1.0;" x1="33" x2="503" y1="168.2109" y2="168.2109"/><text fill="#000000" font-family="sans-serif" font-size="13" font-weight="bold" lengthAdjust="spacing" textLength="7" x="40" y="163.4561">3</text><text fill="#000000" font-family="sans-serif" font-size="13" lengthAdjust="spacing" textLength="193" x="51" y="163.4561">selects a locomotive for purchase</text><polygon fill="#181818" points="44,192.7344,34,196.7344,44,200.7344,40,196.7344" style="stroke:#181818;stroke-width:1.0;"/><line style="stroke:#181818;stroke-width:1.0;stroke-dasharray:2.0,2.0;" x1="38" x2="513" y1="196.7344" y2="196.7344"/><text fill="#000000" font-family="sans-serif" font-size="13" font-weight="bold" lengthAdjust="spacing" textLength="7" x="50" y="191.9795">4</text><text fill="#000000" font-family="sans-serif" font-size="13" lengthAdjust="spacing" textLength="236" x="61" y="191.9795">shows all data and requests confirmation</text><polygon fill="#181818" points="497,221.2578,507,225.2578,497,229.2578,501,225.2578" style="stroke:#181818;stroke-width:1.0;"/><line style="stroke:#181818;stroke-width:1.0;" x1="33" x2="503" y1="225.2578" y2="225.2578"/><text fill="#000000" font-family="sans-serif" font-size="13" font-weight="bold" lengthAdjust="spacing" textLength="7" x="40" y="220.5029">5</text><text fill="#000000" font-family="sans-serif" font-size="13" lengthAdjust="spacing" textLength="96" x="51" y="220.5029">confirms request</text><polygon fill="#181818" points="44,249.7813,34,253.7813,44,257.7813,40,253.7813" style="stroke:#181818;stroke-width:1.0;"/><line style="stroke:#181818;stroke-width:1.0;stroke-dasharray:2.0,2.0;" x1="38" x2="513" y1="253.7813" y2="253.7813"/><text fill="#000000" font-family="sans-serif" font-size="13" font-weight="bold" lengthAdjust="spacing" textLength="7" x="50" y="249.0264">6</text><text fill="#000000" font-family="sans-serif" font-size="13" lengthAdjust="spacing" textLength="441" x="61" y="249.0264">confirms sufficient funds and inventory spaceand displays operation success</text><!--SRC=[dP91Za8X38RtxnIDUo_WOium6KzGUUL91ChGedctjo8Q5oOJXrNJyl_z2fLJo0Kh9aYSsHqh9mAjZIPvLWgw4owqrpKIL7AAUOcl5-I8Crz2Ni1Z59ecRCgvfGDLYvroXSrtn9Ng1b3W7awcrU12mQomsUrNKKgzVW-xCfnHwI6OmCuzXktNk0Ox-A7VHg82COW2Uy0pXeW7eutiEB7Pa80t345BOfvj32bqyoSeDJYIRlxi-420SKQlhRKT03kRcY_oHwzkCDDRtpUJ24M3CjCNi-vLMdL75FetPOmme-AOVRoNu-n3JQY1yuUaGoeFiy_1dWxIlBSz85i3t_8idJ7aioMuhY2sVdHBpK6AYGMuKEtC9dNsTVAU_Ge0]--></g></svg>