<svg xmlns="http://www.w3.org/2000/svg" xmlns:xlink="http://www.w3.org/1999/xlink" contentStyleType="text/css" data-diagram-type="SEQUENCE" height="356px" preserveAspectRatio="none" style="width:408px;height:356px;background:#FFFFFF;" version="1.1" viewBox="0 0 408 356" width="408px" zoomAndPan="magnify"><defs/><g><g><title>Player</title><rect fill="#FFFFFF" height="175.7969" style="stroke:#181818;stroke-width:1;" width="10" x="24.7827" y="91.2969"/></g><g><title>:System</title><rect fill="#FFFFFF" height="29.1328" style="stroke:#181818;stroke-width:1;" width="10" x="362.373" y="112.4297"/></g><g><title>:System</title><rect fill="#FFFFFF" height="29.1328" style="stroke:#181818;stroke-width:1;" width="10" x="362.373" y="170.6953"/></g><g><title>:System</title><rect fill="#FFFFFF" height="29.1328" style="stroke:#181818;stroke-width:1;" width="10" x="362.373" y="228.9609"/></g><g><title>Player</title><rect fill="transparent" height="194.7969" width="8" x="25.7827" y="81.2969"/><line style="stroke:#181818;stroke-width:0.5;stroke-dasharray:5.0,5.0;" x1="29" x2="29" y1="81.2969" y2="276.0938"/></g><g><title>:System</title><rect fill="transparent" height="194.7969" width="8" x="363.373" y="81.2969"/><line style="stroke:#181818;stroke-width:0.5;stroke-dasharray:5.0,5.0;" x1="366.9116" x2="366.9116" y1="81.2969" y2="276.0938"/></g><text fill="#000000" font-family="sans-serif" font-size="14" lengthAdjust="spacing" textLength="43.5654" x="5" y="77.9951">Player</text><ellipse cx="29.7827" cy="13.5" fill="#E3E3E3" rx="8" ry="8" style="stroke:#181818;stroke-width:0.5;"/><path d="M29.7827,21.5 L29.7827,48.5 M16.7827,29.5 L42.7827,29.5 M29.7827,48.5 L16.7827,63.5 M29.7827,48.5 L42.7827,63.5 " fill="transparent" style="stroke:#181818;stroke-width:0.5;"/><text fill="#000000" font-family="sans-serif" font-size="14" lengthAdjust="spacing" textLength="43.5654" x="5" y="288.0889">Player</text><ellipse cx="29.7827" cy="299.8906" fill="#E3E3E3" rx="8" ry="8" style="stroke:#181818;stroke-width:0.5;"/><path d="M29.7827,307.8906 L29.7827,334.8906 M16.7827,315.8906 L42.7827,315.8906 M29.7827,334.8906 L16.7827,349.8906 M29.7827,334.8906 L42.7827,349.8906 " fill="transparent" style="stroke:#181818;stroke-width:0.5;"/><rect fill="#E3E3E3" height="30.2969" rx="2.5" ry="2.5" style="stroke:#181818;stroke-width:0.5;" width="70.9229" x="331.9116" y="50"/><text fill="#000000" font-family="sans-serif" font-size="14" lengthAdjust="spacing" textLength="56.9229" x="338.9116" y="69.9951">:System</text><rect fill="#E3E3E3" height="30.2969" rx="2.5" ry="2.5" style="stroke:#181818;stroke-width:0.5;" width="70.9229" x="331.9116" y="275.0938"/><text fill="#000000" font-family="sans-serif" font-size="14" lengthAdjust="spacing" textLength="56.9229" x="338.9116" y="295.0889">:System</text><g><title>Player</title><rect fill="#FFFFFF" height="175.7969" style="stroke:#181818;stroke-width:1;" width="10" x="24.7827" y="91.2969"/></g><g><title>:System</title><rect fill="#FFFFFF" height="29.1328" style="stroke:#181818;stroke-width:1;" width="10" x="362.373" y="112.4297"/></g><g><title>:System</title><rect fill="#FFFFFF" height="29.1328" style="stroke:#181818;stroke-width:1;" width="10" x="362.373" y="170.6953"/></g><g><title>:System</title><rect fill="#FFFFFF" height="29.1328" style="stroke:#181818;stroke-width:1;" width="10" x="362.373" y="228.9609"/></g><polygon fill="#181818" points="350.373,108.4297,360.373,112.4297,350.373,116.4297,354.373,112.4297" style="stroke:#181818;stroke-width:1;"/><line style="stroke:#181818;stroke-width:1;" x1="34.7827" x2="356.373" y1="112.4297" y2="112.4297"/><text fill="#000000" font-family="sans-serif" font-size="13" font-weight="bold" lengthAdjust="spacing" textLength="9.0454" x="41.7827" y="107.3638">1</text><text fill="#000000" font-family="sans-serif" font-size="13" lengthAdjust="spacing" textLength="174.4146" x="54.8281" y="107.3638">Requests to build a station</text><polygon fill="#181818" points="45.7827,137.5625,35.7827,141.5625,45.7827,145.5625,41.7827,141.5625" style="stroke:#181818;stroke-width:1;"/><line style="stroke:#181818;stroke-width:1;stroke-dasharray:2.0,2.0;" x1="39.7827" x2="366.373" y1="141.5625" y2="141.5625"/><text fill="#000000" font-family="sans-serif" font-size="13" font-weight="bold" lengthAdjust="spacing" textLength="9.0454" x="51.7827" y="136.4966">2</text><text fill="#000000" font-family="sans-serif" font-size="13" lengthAdjust="spacing" textLength="206.3179" x="64.8281" y="136.4966">Displays available station types</text><polygon fill="#181818" points="350.373,166.6953,360.373,170.6953,350.373,174.6953,354.373,170.6953" style="stroke:#181818;stroke-width:1;"/><line style="stroke:#181818;stroke-width:1;" x1="34.7827" x2="356.373" y1="170.6953" y2="170.6953"/><text fill="#000000" font-family="sans-serif" font-size="13" font-weight="bold" lengthAdjust="spacing" textLength="9.0454" x="41.7827" y="165.6294">3</text><text fill="#000000" font-family="sans-serif" font-size="13" lengthAdjust="spacing" textLength="213.2241" x="54.8281" y="165.6294">Selects station type and location</text><polygon fill="#181818" points="45.7827,195.8281,35.7827,199.8281,45.7827,203.8281,41.7827,199.8281" style="stroke:#181818;stroke-width:1;"/><line style="stroke:#181818;stroke-width:1;stroke-dasharray:2.0,2.0;" x1="39.7827" x2="366.373" y1="199.8281" y2="199.8281"/><text fill="#000000" font-family="sans-serif" font-size="13" font-weight="bold" lengthAdjust="spacing" textLength="9.0454" x="51.7827" y="194.7622">4</text><text fill="#000000" font-family="sans-serif" font-size="13" lengthAdjust="spacing" textLength="181.2446" x="64.8281" y="194.7622">Validates construction rules</text><polygon fill="#181818" points="350.373,224.9609,360.373,228.9609,350.373,232.9609,354.373,228.9609" style="stroke:#181818;stroke-width:1;"/><line style="stroke:#181818;stroke-width:1;" x1="34.7827" x2="356.373" y1="228.9609" y2="228.9609"/><text fill="#000000" font-family="sans-serif" font-size="13" font-weight="bold" lengthAdjust="spacing" textLength="9.0454" x="41.7827" y="223.895">5</text><text fill="#000000" font-family="sans-serif" font-size="13" lengthAdjust="spacing" textLength="192.0864" x="54.8281" y="223.895">Confirms station construction</text><polygon fill="#181818" points="45.7827,254.0938,35.7827,258.0938,45.7827,262.0938,41.7827,258.0938" style="stroke:#181818;stroke-width:1;"/><line style="stroke:#181818;stroke-width:1;stroke-dasharray:2.0,2.0;" x1="39.7827" x2="366.373" y1="258.0938" y2="258.0938"/><text fill="#000000" font-family="sans-serif" font-size="13" font-weight="bold" lengthAdjust="spacing" textLength="9.0454" x="51.7827" y="253.0278">6</text><text fill="#000000" font-family="sans-serif" font-size="13" lengthAdjust="spacing" textLength="290.5449" x="64.8281" y="253.0278">Displays success message and updates map</text><!--SRC=[bP8nRiCm34LtdOB8dWjuwD8UeAY1xhJCE4GaKHMf1Bvz1TjfKgH3iqWV8D_79oKzSSfOC4AK9FvO919OgUJqfvBHdt2YtkP0KCWRfYdSD-WHHxbmck20GSavh2Qfne5AqzwamEuzu4nb1wYmIjTOOyyPay6kwsSrYajzbGl9PpIw0cwzOV-ojK077_HLIKt118RAOGG4DJIMTEElXXkrRmQRLGTlhBbf1JmZ1npQY1iFDcTIDzA3pnyvUWfjCVgB1KmZ1F5FfFd4m6DhKl2IjBs3NznA3VzEyYhfm2NUejmxFRaJhTwJAiHsj1-m35Jp6Z1YVapq3G00]--></g></svg>