<svg xmlns="http://www.w3.org/2000/svg" xmlns:xlink="http://www.w3.org/1999/xlink" contentStyleType="text/css" height="562px" preserveAspectRatio="none" style="width:477px;height:562px;background:#FFFFFF;" version="1.1" viewBox="0 0 477 562" width="477px" zoomAndPan="magnify"><defs/><g><rect fill="#FFFFFF" height="376.4922" style="stroke:#181818;stroke-width:1.0;" width="10" x="49.686" y="93.6211"/><rect fill="#FFFFFF" height="31.291" style="stroke:#181818;stroke-width:1.0;" width="10" x="433.792" y="116.9121"/><rect fill="#FFFFFF" height="31.291" style="stroke:#181818;stroke-width:1.0;" width="10" x="433.792" y="179.4941"/><rect fill="#FFFFFF" height="31.291" style="stroke:#181818;stroke-width:1.0;" width="10" x="433.792" y="242.0762"/><rect fill="#FFFFFF" height="31.291" style="stroke:#181818;stroke-width:1.0;" width="10" x="433.792" y="304.6582"/><rect fill="#FFFFFF" height="31.291" style="stroke:#181818;stroke-width:1.0;" width="10" x="433.792" y="367.2402"/><rect fill="#FFFFFF" height="31.291" style="stroke:#181818;stroke-width:1.0;" width="10" x="433.792" y="429.8223"/><line style="stroke:#181818;stroke-width:0.5;stroke-dasharray:5.0,5.0;" x1="54" x2="54" y1="83.6211" y2="479.1133"/><line style="stroke:#181818;stroke-width:0.5;stroke-dasharray:5.0,5.0;" x1="438.5093" x2="438.5093" y1="83.6211" y2="479.1133"/><text fill="#000000" font-family="sans-serif" font-size="14" lengthAdjust="spacing" textLength="93.3721" x="5" y="80.1074">Product Owner</text><ellipse cx="54.686" cy="13.5" fill="#E3E3E3" rx="8" ry="8" style="stroke:#181818;stroke-width:0.5;"/><path d="M54.686,21.5 L54.686,48.5 M41.686,29.5 L67.686,29.5 M54.686,48.5 L41.686,63.5 M54.686,48.5 L67.686,63.5 " fill="none" style="stroke:#181818;stroke-width:0.5;"/><text fill="#000000" font-family="sans-serif" font-size="14" lengthAdjust="spacing" textLength="93.3721" x="5" y="493.2207">Product Owner</text><ellipse cx="54.686" cy="505.2344" fill="#E3E3E3" rx="8" ry="8" style="stroke:#181818;stroke-width:0.5;"/><path d="M54.686,513.2344 L54.686,540.2344 M41.686,521.2344 L67.686,521.2344 M54.686,540.2344 L41.686,555.2344 M54.686,540.2344 L67.686,555.2344 " fill="none" style="stroke:#181818;stroke-width:0.5;"/><rect fill="#E3E3E3" height="32.6211" rx="2.5" ry="2.5" style="stroke:#181818;stroke-width:0.5;" width="64.5654" x="406.5093" y="50"/><text fill="#000000" font-family="sans-serif" font-size="14" lengthAdjust="spacing" textLength="50.5654" x="413.5093" y="72.1074">:System</text><rect fill="#E3E3E3" height="32.6211" rx="2.5" ry="2.5" style="stroke:#181818;stroke-width:0.5;" width="64.5654" x="406.5093" y="478.1133"/><text fill="#000000" font-family="sans-serif" font-size="14" lengthAdjust="spacing" textLength="50.5654" x="413.5093" y="500.2207">:System</text><rect fill="#FFFFFF" height="376.4922" style="stroke:#181818;stroke-width:1.0;" width="10" x="49.686" y="93.6211"/><rect fill="#FFFFFF" height="31.291" style="stroke:#181818;stroke-width:1.0;" width="10" x="433.792" y="116.9121"/><rect fill="#FFFFFF" height="31.291" style="stroke:#181818;stroke-width:1.0;" width="10" x="433.792" y="179.4941"/><rect fill="#FFFFFF" height="31.291" style="stroke:#181818;stroke-width:1.0;" width="10" x="433.792" y="242.0762"/><rect fill="#FFFFFF" height="31.291" style="stroke:#181818;stroke-width:1.0;" width="10" x="433.792" y="304.6582"/><rect fill="#FFFFFF" height="31.291" style="stroke:#181818;stroke-width:1.0;" width="10" x="433.792" y="367.2402"/><rect fill="#FFFFFF" height="31.291" style="stroke:#181818;stroke-width:1.0;" width="10" x="433.792" y="429.8223"/><polygon fill="#181818" points="421.792,112.9121,431.792,116.9121,421.792,120.9121,425.792,116.9121" style="stroke:#181818;stroke-width:1.0;"/><line style="stroke:#181818;stroke-width:1.0;" x1="59.686" x2="427.792" y1="116.9121" y2="116.9121"/><text fill="#000000" font-family="sans-serif" font-size="13" font-weight="bold" lengthAdjust="spacing" textLength="7.23" x="66.686" y="111.6494">1</text><text fill="#000000" font-family="sans-serif" font-size="13" lengthAdjust="spacing" textLength="149.5571" x="77.916" y="111.6494">requests to start simulator</text><polygon fill="#181818" points="70.686,144.2031,60.686,148.2031,70.686,152.2031,66.686,148.2031" style="stroke:#181818;stroke-width:1.0;"/><line style="stroke:#181818;stroke-width:1.0;stroke-dasharray:2.0,2.0;" x1="64.686" x2="437.792" y1="148.2031" y2="148.2031"/><text fill="#000000" font-family="sans-serif" font-size="13" font-weight="bold" lengthAdjust="spacing" textLength="7.23" x="76.686" y="142.9404">2</text><text fill="#000000" font-family="sans-serif" font-size="13" lengthAdjust="spacing" textLength="285.3843" x="87.916" y="142.9404">confirms simulator starting request and lists maps</text><polygon fill="#181818" points="421.792,175.4941,431.792,179.4941,421.792,183.4941,425.792,179.4941" style="stroke:#181818;stroke-width:1.0;"/><line style="stroke:#181818;stroke-width:1.0;" x1="59.686" x2="427.792" y1="179.4941" y2="179.4941"/><text fill="#000000" font-family="sans-serif" font-size="13" font-weight="bold" lengthAdjust="spacing" textLength="7.23" x="66.686" y="174.2314">3</text><text fill="#000000" font-family="sans-serif" font-size="13" lengthAdjust="spacing" textLength="69.3608" x="77.916" y="174.2314">selects map</text><polygon fill="#181818" points="70.686,206.7852,60.686,210.7852,70.686,214.7852,66.686,210.7852" style="stroke:#181818;stroke-width:1.0;"/><line style="stroke:#181818;stroke-width:1.0;stroke-dasharray:2.0,2.0;" x1="64.686" x2="437.792" y1="210.7852" y2="210.7852"/><text fill="#000000" font-family="sans-serif" font-size="13" font-weight="bold" lengthAdjust="spacing" textLength="7.23" x="76.686" y="205.5225">4</text><text fill="#000000" font-family="sans-serif" font-size="13" lengthAdjust="spacing" textLength="338.876" x="87.916" y="205.5225">confirms map selection and lists scenarios of selected map</text><polygon fill="#181818" points="421.792,238.0762,431.792,242.0762,421.792,246.0762,425.792,242.0762" style="stroke:#181818;stroke-width:1.0;"/><line style="stroke:#181818;stroke-width:1.0;" x1="59.686" x2="427.792" y1="242.0762" y2="242.0762"/><text fill="#000000" font-family="sans-serif" font-size="13" font-weight="bold" lengthAdjust="spacing" textLength="7.23" x="66.686" y="236.8135">5</text><text fill="#000000" font-family="sans-serif" font-size="13" lengthAdjust="spacing" textLength="93.209" x="77.916" y="236.8135">selects scenario</text><polygon fill="#181818" points="70.686,269.3672,60.686,273.3672,70.686,277.3672,66.686,273.3672" style="stroke:#181818;stroke-width:1.0;"/><line style="stroke:#181818;stroke-width:1.0;stroke-dasharray:2.0,2.0;" x1="64.686" x2="437.792" y1="273.3672" y2="273.3672"/><text fill="#000000" font-family="sans-serif" font-size="13" font-weight="bold" lengthAdjust="spacing" textLength="7.23" x="76.686" y="268.1045">6</text><text fill="#000000" font-family="sans-serif" font-size="13" lengthAdjust="spacing" textLength="273.8315" x="87.916" y="268.1045">confirms scenario selection and starts simulator</text><polygon fill="#181818" points="421.792,300.6582,431.792,304.6582,421.792,308.6582,425.792,304.6582" style="stroke:#181818;stroke-width:1.0;"/><line style="stroke:#181818;stroke-width:1.0;" x1="59.686" x2="427.792" y1="304.6582" y2="304.6582"/><text fill="#000000" font-family="sans-serif" font-size="13" font-weight="bold" lengthAdjust="spacing" textLength="7.23" x="66.686" y="299.3955">7</text><text fill="#000000" font-family="sans-serif" font-size="13" lengthAdjust="spacing" textLength="159.6943" x="77.916" y="299.3955">requests to pause simulator</text><polygon fill="#181818" points="70.686,331.9492,60.686,335.9492,70.686,339.9492,66.686,335.9492" style="stroke:#181818;stroke-width:1.0;"/><line style="stroke:#181818;stroke-width:1.0;stroke-dasharray:2.0,2.0;" x1="64.686" x2="437.792" y1="335.9492" y2="335.9492"/><text fill="#000000" font-family="sans-serif" font-size="13" font-weight="bold" lengthAdjust="spacing" textLength="7.23" x="76.686" y="330.6865">8</text><text fill="#000000" font-family="sans-serif" font-size="13" lengthAdjust="spacing" textLength="154.6162" x="87.916" y="330.6865">confirms simulator pausing</text><polygon fill="#181818" points="421.792,363.2402,431.792,367.2402,421.792,371.2402,425.792,367.2402" style="stroke:#181818;stroke-width:1.0;"/><line style="stroke:#181818;stroke-width:1.0;" x1="59.686" x2="427.792" y1="367.2402" y2="367.2402"/><text fill="#000000" font-family="sans-serif" font-size="13" font-weight="bold" lengthAdjust="spacing" textLength="7.23" x="66.686" y="361.9775">9</text><text fill="#000000" font-family="sans-serif" font-size="13" lengthAdjust="spacing" textLength="167.6226" x="77.916" y="361.9775">requests to resume simulator</text><polygon fill="#181818" points="70.686,394.5313,60.686,398.5313,70.686,402.5313,66.686,398.5313" style="stroke:#181818;stroke-width:1.0;"/><line style="stroke:#181818;stroke-width:1.0;stroke-dasharray:2.0,2.0;" x1="64.686" x2="437.792" y1="398.5313" y2="398.5313"/><text fill="#000000" font-family="sans-serif" font-size="13" font-weight="bold" lengthAdjust="spacing" textLength="14.46" x="76.686" y="393.2686">10</text><text fill="#000000" font-family="sans-serif" font-size="13" lengthAdjust="spacing" textLength="162.5444" x="95.146" y="393.2686">confirms simulator resuming</text><polygon fill="#181818" points="421.792,425.8223,431.792,429.8223,421.792,433.8223,425.792,429.8223" style="stroke:#181818;stroke-width:1.0;"/><line style="stroke:#181818;stroke-width:1.0;" x1="59.686" x2="427.792" y1="429.8223" y2="429.8223"/><text fill="#000000" font-family="sans-serif" font-size="13" font-weight="bold" lengthAdjust="spacing" textLength="14.46" x="66.686" y="424.5596">11</text><text fill="#000000" font-family="sans-serif" font-size="13" lengthAdjust="spacing" textLength="148.8462" x="85.146" y="424.5596">requests to stop simulator</text><polygon fill="#181818" points="70.686,457.1133,60.686,461.1133,70.686,465.1133,66.686,461.1133" style="stroke:#181818;stroke-width:1.0;"/><line style="stroke:#181818;stroke-width:1.0;stroke-dasharray:2.0,2.0;" x1="64.686" x2="437.792" y1="461.1133" y2="461.1133"/><text fill="#000000" font-family="sans-serif" font-size="13" font-weight="bold" lengthAdjust="spacing" textLength="14.46" x="76.686" y="455.8506">12</text><text fill="#000000" font-family="sans-serif" font-size="13" lengthAdjust="spacing" textLength="158.228" x="95.146" y="455.8506">confirms simulator stopping</text><!--SRC=[jPF1RiCW343l-Gehz_v03hljl4dz0eyuBIfWXisg_FqefMbLTOSj7ISGzlF3W1niY9ZGW-V0Pf_O4sZArCco4z4SS4TRdHr18gCOTkusGFOuyj667KpeXBeEitB8_eDIcHlb1FrxuZ4RXRTZeDG32hpww7WcwWf4hR4HWq8_R6THyZNYFAq8-uLArvGEohYiOFFIGc4eVf-PH0MKGRIGGQpF3ej4JLfO5pYqqGYR0bl00nWEaqrUhfGpzNJOLWemZE3igQR7A1KuqiCw3us5NEbfJLvbMF8RotAuaH930PDb0PvQ08rBjR-ONeZh6jeWTywrkt9tQR-Hl7q04RFGqn_0YLhkVvLP8id- -MeLkzPDbEC__1gEyMUpRm00]--></g></svg>